# Blender v2.79 (sub 0) OBJ File: ''
# www.blender.org
mtllib shell.mtl
o model
v -0.680904 0.008038 -0.270221
v -0.694372 -0.011801 -0.244060
v -0.669065 -0.013929 -0.240952
v -0.693793 -0.009668 -0.239982
v -0.696268 -0.012977 -0.242364
v -0.695257 0.014637 -0.065829
v -0.028871 0.053021 0.669746
v -0.009217 0.047071 0.667148
v 0.172440 0.040173 0.639479
v -0.033077 0.053213 0.665144
v -0.197537 0.072841 0.625857
v 0.752816 0.018791 0.028667
v 0.777434 0.014892 -0.263969
v 0.713663 0.232364 0.077550
v -0.696822 0.133698 -0.174579
v -0.675128 0.010317 -0.329536
v -0.676747 0.014820 -0.324546
v 0.692176 -0.020317 0.180929
v 0.604974 -0.014568 -0.470756
v 0.529612 0.076167 -0.597538
v 0.571080 0.213395 0.420239
v 0.515679 0.012402 0.457328
v -0.669419 -0.002793 0.119304
v -0.529983 0.037448 0.357744
v -0.581210 0.190473 0.335211
v -0.567052 -0.027156 -0.558639
v -0.605963 0.204129 -0.450984
v 0.045720 0.211413 0.657828
v 0.347901 0.164966 0.592598
v -0.352800 0.018809 -0.719248
v -0.441190 0.066007 0.461859
v -0.374375 0.151740 0.578772
v -0.367068 0.146954 -0.690357
v -0.210860 0.280156 0.612841
v -0.128406 0.000008 -0.791230
v 0.213231 0.197829 -0.717344
v 0.164352 0.016388 -0.756933
v -0.125967 0.424777 -0.553535
v 0.519954 0.393067 -0.230334
v -0.525869 0.377968 -0.027343
v 0.062436 0.486901 0.459629
v 0.420467 0.484715 0.239293
v -0.346176 0.474059 -0.307807
v 0.163645 0.551878 0.279854
v -0.281505 0.486409 0.143052
v 0.123078 0.458127 -0.466808
v 0.168203 0.577882 -0.069643
v -0.085497 0.562842 -0.056494
v -0.032262 0.054370 0.674148
v -0.677627 0.009906 -0.327338
v -0.239510 0.108580 0.655673
v -0.243345 0.107516 0.656330
v -0.226316 0.115074 0.668636
v -0.226080 0.111635 0.664883
vt 0.407032 0.893254
vt 0.401284 0.887991
vt 0.401170 0.884868
vt 0.399930 0.888046
vt 0.400436 0.888523
vt 0.344899 0.896009
vt 0.038411 0.781977
vt 0.038856 0.788874
vt 0.034507 0.799711
vt 0.038309 0.781380
vt 0.037653 0.774759
vt 0.781634 0.541682
vt 0.784393 0.465314
vt 0.799680 0.514644
vt 0.939763 0.342365
vt 0.938831 0.344557
vt 0.937866 0.342196
vt 0.285103 0.893991
vt 0.274958 0.953252
vt 0.236865 0.930982
vt 0.973634 0.126768
vt 0.948499 0.070513
vt 0.962208 0.044050
vt 0.221078 0.839907
vt 0.969620 0.253977
vt 0.974108 0.336673
vt 0.928381 0.281832
vt 0.130322 0.988097
vt 0.136651 0.926652
vt 0.162476 0.941112
vt 0.849276 0.472235
vt 0.842423 0.462888
vt 0.851623 0.405398
vt 0.848741 0.345485
vt 0.882308 0.329757
vt 0.248109 0.818880
vt 0.211909 0.716077
vt 0.276146 0.783074
vt 0.945322 0.910795
vt 0.926066 0.898802
vt 0.937352 0.885299
vt 0.700418 0.785218
vt 0.682444 0.872522
vt 0.654598 0.849815
vt 0.920892 0.516936
vt 0.932694 0.517190
vt 0.916070 0.545381
vt 0.703442 0.698924
vt 0.682589 0.731006
vt 0.047612 0.742446
vt 0.144599 0.710382
vt 0.073597 0.770990
vt 0.137931 0.863589
vt 0.168092 0.865175
vt 0.642589 0.779890
vt 0.965654 0.492036
vt 0.905607 0.483191
vt 0.938159 0.420568
vt 0.090576 0.939553
vt 0.087320 0.925820
vt 0.093202 0.929467
vt 0.899607 0.256786
vt 0.849421 0.149564
vt 0.900384 0.136400
vt 0.202004 0.726283
vt 0.198986 0.717270
vt 0.878170 0.301083
vt 0.844759 0.310881
vt 0.593043 0.228378
vt 0.649645 0.166297
vt 0.695908 0.183527
vt 0.763347 0.778205
vt 0.776727 0.779528
vt 0.765344 0.824946
vt 0.839507 0.243808
vt 0.434134 0.608836
vt 0.400302 0.561195
vt 0.456572 0.535100
vt 0.703286 0.663536
vt 0.601315 0.698488
vt 0.620219 0.601095
vt 0.058324 0.808849
vt 0.052392 0.802731
vt 0.635627 0.731845
vt 0.036543 0.619536
vt 0.042668 0.519706
vt 0.106557 0.561333
vt 0.400567 0.830353
vt 0.346003 0.832146
vt 0.406436 0.787565
vt 0.612608 0.377076
vt 0.021357 0.475803
vt 0.059112 0.396760
vt 0.111486 0.440072
vt 0.825678 0.662218
vt 0.832024 0.642785
vt 0.839316 0.663866
vt 0.399729 0.748052
vt 0.385728 0.642802
vt 0.419712 0.675195
vt 0.123288 0.841980
vt 0.377781 0.381559
vt 0.448427 0.423927
vt 0.312681 0.462723
vt 0.403593 0.519838
vt 0.665472 0.964347
vt 0.631888 0.970342
vt 0.650721 0.957006
vt 0.644086 0.993727
vt 0.846498 0.603654
vt 0.900761 0.585177
vt 0.866818 0.655119
vt 0.735879 0.316247
vt 0.913164 0.616698
vt 0.744653 0.579676
vt 0.651153 0.500150
vt 0.743287 0.435049
vt 0.563482 0.502078
vt 0.179716 0.820206
vt 0.795818 0.251851
vt 0.359069 0.612299
vt 0.271063 0.574934
vt 0.249528 0.707403
vt 0.336710 0.706134
vt 0.199422 0.495658
vt 0.235468 0.429127
vt 0.798028 0.374172
vt 0.734601 0.499025
vt 0.194044 0.608008
vt 0.038327 0.781248
vt 0.929179 0.395511
vt 0.589296 0.999145
vt 0.591271 0.999533
vt 0.591439 0.998257
vt 0.933688 0.326352
vt 0.927734 0.313681
vt 0.768484 0.754226
vt 0.763672 0.721476
vt 0.768484 0.675896
vt 0.052817 0.934778
vt 0.050784 0.902288
vt 0.054055 0.888557
vt 0.104492 0.859395
vt 0.117068 0.931823
vt 0.104492 0.979660
vt 0.165417 0.441702
vt 0.177616 0.574666
vt 0.142578 0.682575
vt 0.498047 0.252113
vt 0.501543 0.286598
vt 0.498047 0.337943
vt 0.142578 0.394976
vt 0.864068 0.559259
vt 0.857422 0.535123
vt 0.866441 0.476344
vt 0.318503 0.359666
vt 0.212281 0.387163
vt 0.115231 0.344079
vt 0.834857 0.100233
vt 0.654883 0.133953
vt 0.540827 0.083845
vt 0.574167 0.534069
vt 0.586773 0.628676
vt 0.563477 0.714505
vt 0.484375 0.003906
vt 0.061739 0.286940
vt 0.476833 0.122219
vt 0.934047 0.003906
vt 0.461590 0.017060
vt 0.004280 0.073677
vt 0.021414 0.003906
vn -0.0068 0.7984 0.6020
vn 0.1315 0.8709 -0.4736
vn 0.1314 0.8707 -0.4739
vn 0.1316 0.8708 -0.4736
vn -0.6694 0.6931 -0.2674
vn 0.1631 0.9773 -0.1350
vn 0.1529 0.0750 0.9854
vn 0.0615 0.9980 -0.0145
vn 0.0814 0.9851 0.1514
vn 0.9666 0.1261 0.2233
vn 0.8974 0.4282 -0.1067
vn 0.9381 0.3453 0.0262
vn 0.4238 0.7366 -0.5271
vn 0.9188 0.0800 0.3865
vn 0.2852 -0.9531 -0.1015
vn 0.7314 -0.3971 -0.5544
vn 0.7650 -0.2136 -0.6076
vn 0.9187 0.0801 0.3867
vn 0.8289 -0.1280 0.5445
vn -0.8303 -0.2015 0.5196
vn -0.8543 -0.5180 -0.0433
vn -0.9529 0.2591 0.1574
vn -0.9489 -0.0129 -0.3152
vn -0.8744 0.4538 -0.1718
vn -0.8008 0.4901 -0.3441
vn 0.2191 0.0578 0.9740
vn -0.0490 -0.1422 0.9886
vn -0.6146 0.2455 -0.7496
vn -0.4419 -0.5841 0.6809
vn -0.6953 0.0835 -0.7139
vn -0.4901 -0.6387 0.5932
vn -0.4910 -0.6376 0.5936
vn -0.6431 -0.3942 0.6566
vn -0.1590 0.0517 0.9859
vn 0.6143 -0.0238 0.7887
vn 0.4993 0.4150 0.7606
vn 0.5225 0.3454 0.7795
vn -0.7646 -0.1642 0.6232
vn 0.1041 0.1852 -0.9772
vn -0.9949 -0.0747 -0.0675
vn -0.9700 0.1579 0.1851
vn -0.9626 0.1781 0.2041
vn -0.2867 0.1802 -0.9409
vn 0.3848 0.0966 -0.9179
vn -0.2380 0.0456 0.9702
vn -0.5745 0.5777 0.5798
vn -0.0129 0.5727 -0.8197
vn -0.0939 0.4866 -0.8686
vn 0.0336 0.6170 -0.7863
vn 0.7236 0.5318 -0.4399
vn -0.9068 0.4147 0.0760
vn -0.0678 0.4875 -0.8705
vn -0.8468 0.3526 0.3982
vn 0.7996 0.5630 -0.2092
vn 0.2561 0.5542 0.7920
vn 0.4739 0.6728 -0.5682
vn 0.7138 0.6171 0.3312
vn 0.6883 0.7127 0.1357
vn 0.6953 0.6980 0.1713
vn 0.0139 0.5834 0.8121
vn 0.3718 0.6490 0.6637
vn -0.4369 0.6730 -0.5968
vn -0.4410 0.6961 -0.5665
vn -0.5336 0.7352 -0.4179
vn -0.6236 0.7696 -0.1373
vn -0.3315 0.9333 -0.1384
vn -0.7216 0.6495 -0.2398
vn 0.5124 0.6741 0.5321
vn 0.2846 0.6810 0.6747
vn -0.4936 0.7666 0.4108
vn 0.4485 0.6956 -0.5613
vn -0.3867 0.8216 0.4189
vn -0.5586 0.7684 0.3121
vn 0.3520 0.9360 -0.0006
vn 0.3828 0.9020 -0.1994
vn 0.3592 0.9239 -0.1315
vn 0.6488 0.7609 -0.0110
vn 0.1441 0.7117 -0.6876
vn -0.3885 0.9210 -0.0289
vn -0.2051 0.9560 0.2098
vn -0.2005 0.9607 0.1919
vn -0.2094 0.9514 0.2260
vn -0.2461 0.9654 -0.0858
vn -0.0369 0.9636 -0.2647
vn -0.0760 0.9623 -0.2611
vn 0.3291 0.8931 -0.3067
vn -0.0713 0.9572 -0.2805
vn -0.1962 0.9645 0.1767
vn 0.2634 0.9618 0.0750
vn -0.0552 0.9958 0.0734
vn -0.2005 -0.9692 0.1427
vn -0.2599 -0.9451 0.1980
vn -0.7941 0.4164 -0.4427
vn 0.8843 -0.4534 0.1115
vn 0.6262 -0.4669 0.6243
vn 0.8790 -0.1754 0.4434
vn -0.2408 -0.7244 0.6460
vn -0.9945 -0.0622 -0.0839
vn -0.6065 -0.7819 -0.1440
vn -0.9276 0.0413 -0.3712
vn 0.6507 -0.7566 0.0648
vn 0.4313 -0.2848 0.8561
vn -0.3021 -0.8218 0.4831
vn 0.1072 -0.9571 -0.2691
vn 0.3972 -0.6180 -0.6784
vn 0.3404 -0.7201 -0.6047
vn -0.0241 -0.9966 0.0783
vn 0.2105 -0.9680 0.1369
vn 0.0308 -0.9952 0.0924
vn 0.0812 -0.9698 -0.2299
vn 0.5027 -0.8513 -0.1503
vn 0.2111 -0.9768 -0.0369
vn -0.0474 -0.9963 0.0722
vn -0.0205 -0.9934 0.1127
vn 0.2508 -0.9663 0.0580
vn -0.1625 -0.9866 0.0130
vn -0.0312 -0.9992 0.0260
vn 0.0814 -0.9962 0.0306
vn -0.0689 -0.9966 0.0454
vn -0.1476 -0.9874 0.0567
vn -0.0526 -0.9981 0.0334
usemtl model
s 1
f 1/1/1 2/2/1 3/3/1
f 4/4/2 3/3/3 2/2/4
f 4/4/5 2/2/5 5/5/5
f 6/6/6 3/3/6 4/4/6
f 7/7/7 8/8/7 9/9/7
f 10/10/8 7/7/8 9/9/8
f 11/11/9 10/10/9 9/9/9
f 12/12/10 13/13/11 14/14/12
f 15/15/13 16/16/13 17/17/13
f 18/18/14 12/19/10 14/20/12
f 13/21/15 19/22/16 20/23/17
f 18/18/18 14/20/18 21/24/18
f 22/25/19 18/26/19 21/27/19
f 23/28/20 24/29/20 25/30/20
f 1/31/21 3/32/21 6/33/21
f 6/33/22 23/34/22 25/35/22
f 26/36/23 15/37/24 27/38/25
f 28/39/26 9/40/26 29/41/26
f 11/42/27 9/43/27 28/44/27
f 26/45/28 27/46/28 30/47/28
f 31/48/29 11/42/29 32/49/29
f 30/50/30 27/51/30 33/52/30
f 24/29/31 31/53/32 32/54/33
f 34/55/34 11/42/34 28/44/34
f 22/56/35 21/57/36 29/58/37
f 32/59/38 25/60/38 24/61/38
f 35/62/39 36/63/39 37/64/39
f 1/65/40 6/66/41 15/37/42
f 35/62/43 30/67/43 33/68/43
f 20/69/44 37/70/44 36/71/44
f 34/55/45 32/49/45 11/42/45
f 25/72/46 32/73/46 34/74/46
f 36/63/47 35/62/48 38/75/49
f 20/76/50 39/77/50 13/78/50
f 40/79/51 6/80/51 25/81/51
f 38/82/52 35/83/52 33/52/52
f 15/84/42 6/80/41 40/79/53
f 14/85/12 13/86/11 39/87/54
f 41/88/55 28/89/55 29/90/55
f 36/71/56 39/91/56 20/69/56
f 21/92/57 14/93/58 42/94/59
f 34/95/60 28/96/60 41/97/60
f 42/98/61 29/99/37 21/100/36
f 33/52/62 27/51/25 38/101/63
f 27/102/25 15/103/24 43/104/64
f 40/105/65 43/104/66 15/103/67
f 29/106/68 44/107/68 41/108/68
f 29/106/69 42/109/69 44/107/69
f 25/110/70 34/111/70 45/112/70
f 36/71/71 46/113/71 39/91/71
f 41/114/72 45/112/72 34/111/72
f 25/81/73 45/115/73 40/79/73
f 42/116/74 39/91/75 47/117/76
f 39/91/77 42/116/59 14/118/58
f 27/51/25 43/119/64 38/101/63
f 36/71/47 38/120/49 46/113/78
f 40/105/79 45/121/79 48/122/79
f 44/123/80 45/121/81 41/124/82
f 40/105/65 48/122/83 43/104/66
f 46/125/84 38/126/84 48/122/84
f 38/126/85 43/104/66 48/122/83
f 47/117/76 39/91/75 46/113/86
f 47/117/87 46/113/87 48/127/87
f 44/123/80 48/122/88 45/121/81
f 44/128/89 42/116/74 47/117/76
f 47/129/90 48/122/90 44/123/90
f 7/7/91 49/130/91 10/10/91
f 8/8/92 7/7/92 10/10/92
f 16/16/93 15/15/93 26/131/93
f 4/4/94 2/2/94 1/1/94
f 17/132/95 50/133/95 16/134/95
f 17/17/96 16/16/96 26/131/96
f 8/8/97 10/10/97 11/11/97
f 1/135/98 15/15/98 17/17/98
f 1/135/99 17/17/99 26/131/99
f 4/136/100 1/135/100 26/131/100
f 13/137/101 12/138/101 18/139/101
f 22/140/102 29/141/102 9/142/102
f 11/143/103 31/144/32 24/145/31
f 37/146/104 20/147/105 19/148/106
f 6/149/107 4/150/108 26/151/109
f 35/152/110 37/146/104 19/148/106
f 24/153/111 23/154/111 6/155/111
f 19/156/16 13/157/15 18/158/112
f 24/159/113 6/160/107 26/161/109
f 22/162/114 9/163/114 8/164/114
f 24/159/115 26/161/115 30/165/115
f 19/156/116 18/158/116 22/166/116
f 35/167/117 19/156/117 22/166/117
f 11/168/118 24/159/118 30/165/118
f 30/169/119 35/167/119 22/166/119
f 8/170/120 11/171/120 30/169/120
f 30/169/121 22/166/121 8/170/121
