# Blender v2.79 (sub 0) OBJ File: ''
# www.blender.org
mtllib medium.mtl
o model
v -0.544407 0.006427 -0.216051
v -0.555175 -0.009435 -0.195135
v -0.534941 -0.011137 -0.192650
v -0.554712 -0.007730 -0.191874
v -0.556691 -0.010376 -0.193779
v -0.553031 0.008791 0.009953
v -0.023083 0.042392 0.535486
v -0.007369 0.037635 0.533409
v 0.239264 0.049900 0.518836
v -0.026446 0.042546 0.531806
v -0.277866 0.074449 0.471060
v 0.655514 -0.007729 -0.162480
v 0.528262 0.212848 0.217869
v -0.557134 0.106896 -0.139582
v -0.539789 0.008249 -0.263476
v -0.541083 0.011849 -0.259486
v 0.236204 0.044351 -0.618705
v -0.372900 0.155868 0.438570
v -0.386848 0.002475 -0.539811
v -0.484489 0.163208 -0.360578
v -0.028055 0.351524 -0.447021
v 0.415722 0.314271 -0.184160
v -0.364080 0.370345 -0.060831
v 0.173756 0.451916 0.245912
v 0.067090 0.477030 -0.018011
v -0.025795 0.043471 0.539005
v -0.541787 0.007920 -0.261718
v -0.191497 0.086814 0.524234
v -0.194563 0.085963 0.524759
v -0.180948 0.092006 0.534598
v -0.180759 0.089256 0.531598
vt 0.105535 0.090859
vt 0.138307 0.091934
vt 0.130482 0.098354
vt 0.145379 0.096631
vt 0.002259 0.237621
vt 0.001954 0.236464
vt 0.002677 0.236464
vt 0.206644 0.067822
vt 0.556275 0.024691
vt 0.572762 0.033613
vt 0.609068 0.012444
vt 0.549131 0.016427
vt 0.443781 0.008833
vt 0.000049 0.125804
vt 0.127384 0.148084
vt 0.127384 0.116865
vt 0.908437 0.097939
vt 0.710280 0.036572
vt 0.409662 0.023145
vt 0.361186 0.214969
vt 0.243320 0.179865
vt 0.645707 0.219865
vt 0.712284 0.118458
vt 0.356815 0.112929
vt 0.523984 0.168715
vt 0.581768 0.055505
vt 0.552153 0.103034
vt 0.001046 0.237728
vt 0.000049 0.238816
vt 0.000049 0.236464
vt 0.001856 0.238248
vt 0.001144 0.236955
vt 0.001856 0.236464
vn -0.0068 0.7984 0.6020
vn 0.1315 0.8709 -0.4736
vn 0.1314 0.8707 -0.4739
vn 0.1316 0.8708 -0.4736
vn -0.6694 0.6931 -0.2674
vn 0.1661 0.9827 -0.0818
vn 0.0678 -0.2026 0.9769
vn -0.0245 0.9976 0.0641
vn -0.0015 0.8828 0.4698
vn 0.4237 0.7366 -0.5271
vn 0.6264 0.2516 0.7378
vn 0.9379 0.3231 0.1260
vn 0.8391 0.3141 0.4441
vn -0.6602 -0.5804 0.4766
vn -0.8641 -0.5026 -0.0277
vn -0.9218 -0.1729 -0.3471
vn -0.8800 0.4408 -0.1769
vn -0.7825 0.4074 -0.4709
vn -0.0741 0.2938 0.9530
vn -0.9945 -0.0979 -0.0369
vn -0.9384 0.2771 0.2062
vn -0.9597 0.2242 0.1694
vn 0.5473 -0.6104 -0.5727
vn 0.6773 0.4660 -0.5693
vn 0.3029 -0.8748 -0.3782
vn -0.8537 0.4839 0.1927
vn 0.1164 0.5590 -0.8210
vn 0.1677 0.5869 -0.7921
vn -0.1414 0.3875 -0.9110
vn -0.8039 0.4870 0.3415
vn 0.8022 0.5923 -0.0751
vn -0.0116 0.5604 0.8282
vn 0.5291 0.7349 0.4243
vn -0.3758 0.5787 -0.7237
vn -0.4063 0.7369 -0.5403
vn -0.5680 0.7659 -0.3011
vn 0.4117 0.6881 -0.5975
vn -0.0416 0.9852 0.1662
vn -0.2896 0.9502 0.1152
vn -0.3401 0.8662 0.3660
vn 0.3180 0.9190 -0.2330
vn 0.0348 0.9966 -0.0742
vn 0.5612 0.8261 0.0513
vn -0.2120 0.9496 -0.2308
vn 0.2685 0.9068 -0.3248
vn -0.2005 -0.9692 0.1427
vn -0.2599 -0.9451 0.1980
vn -0.7898 0.4212 -0.4459
vn 0.8843 -0.4533 0.1115
vn 0.6262 -0.4669 0.6244
vn 0.8513 -0.2213 0.4758
vn -0.2442 -0.7468 0.6186
vn -0.9945 -0.0621 -0.0839
vn -0.3137 -0.9389 -0.1412
vn -0.8959 -0.0906 -0.4349
vn 0.1530 -0.9866 0.0576
vn 0.2203 -0.9723 0.0778
vn 0.1657 -0.9843 0.0614
vn 0.1439 -0.9881 0.0548
vn -0.1288 -0.9917 0.0052
vn 0.0677 -0.9977 0.0047
vn -0.1539 -0.9843 0.0867
vn 0.0505 -0.9986 0.0148
usemtl model
s 1
f 1/1/1 2/2/1 3/3/1
f 4/4/2 3/3/3 2/2/4
f 4/5/5 2/6/5 5/7/5
f 6/8/6 3/3/6 4/4/6
f 7/9/7 8/10/7 9/11/7
f 10/12/8 7/9/8 9/11/8
f 11/13/9 10/12/9 9/11/9
f 14/14/10 15/15/10 16/16/10
f 9/11/11 12/17/12 13/18/13
f 6/8/14 11/13/14 18/19/14
f 1/1/15 3/3/15 6/8/15
f 19/20/16 14/14/17 20/21/18
f 18/19/19 11/13/19 9/11/19
f 1/1/20 6/8/21 14/14/22
f 17/22/23 22/23/24 12/17/25
f 23/24/26 6/8/26 18/19/26
f 21/25/27 17/22/28 19/20/29
f 14/14/22 6/8/21 23/24/30
f 13/18/13 12/17/12 22/23/31
f 18/19/32 9/11/32 24/26/32
f 24/26/33 9/11/11 13/18/13
f 19/20/34 20/21/18 21/25/35
f 20/21/18 14/14/17 23/24/36
f 17/22/28 21/25/27 22/23/37
f 24/26/38 23/24/39 18/19/40
f 24/26/38 22/23/41 25/27/42
f 22/23/43 24/26/33 13/18/13
f 20/21/18 23/24/36 21/25/35
f 21/25/44 23/24/39 25/27/42
f 25/27/42 22/23/41 21/25/45
f 24/26/38 25/27/42 23/24/39
f 7/28/46 26/29/46 10/30/46
f 8/10/47 7/9/47 10/12/47
f 15/15/48 14/14/48 19/20/48
f 4/4/49 2/2/49 1/1/49
f 16/31/50 27/32/50 15/33/50
f 16/16/51 15/15/51 19/20/51
f 8/10/52 10/12/52 11/13/52
f 1/1/53 14/14/53 16/16/53
f 1/1/54 16/16/54 19/20/54
f 4/4/55 1/1/55 19/20/55
f 6/8/56 4/4/57 19/20/58
f 11/13/59 6/8/56 19/20/58
f 17/22/23 12/17/25 9/11/60
f 19/20/61 17/22/61 9/11/61
f 8/10/62 11/13/62 19/20/62
f 19/20/63 9/11/63 8/10/63
l 30 31
l 28 29
