# Blender v2.79 (sub 0) OBJ File: ''
# www.blender.org
mtllib low.mtl
o boulder_countryside.gr2
v -0.468911 0.485658 0.192534
v -0.361118 0.065090 -0.035212
v 0.339251 0.337706 -0.363268
v 0.292125 0.059816 0.046625
v 0.484449 0.786152 -0.020916
v 0.411200 0.425005 0.168443
v 0.287611 0.790660 -0.384549
v -0.155814 0.628667 -0.584367
v -0.521046 0.794029 -0.069773
v -0.271232 1.042099 0.296352
v 0.081928 0.503444 0.598537
v 0.182189 1.062935 0.153903
v -0.105631 1.226992 -0.113258
vt 0.574206 0.736136
vt 0.676503 0.599893
vt 0.834044 0.792538
vt 0.480662 0.570507
vt 0.432893 0.477565
vt 0.626497 0.457068
vt 0.541293 0.753139
vt 0.430983 0.927554
vt 0.438181 0.738758
vt 0.207971 0.761687
vt 0.094041 0.949888
vt 0.031811 0.798431
vt 0.373025 0.060790
vt 0.404265 0.184954
vt 0.183292 0.153012
vt 0.255598 0.391324
vt 0.054038 0.355266
vt 0.494268 0.329490
vt 0.371693 0.500184
vt 0.177893 0.571404
vt 0.083296 0.462645
vt 0.705159 0.388598
vt 0.909175 0.304008
vt 0.873862 0.492737
vt 0.883123 0.121180
vt 0.762942 0.241646
vt 0.647123 0.041287
vt 0.528480 0.229357
vt 0.514952 0.047532
vn 0.6062 -0.4575 -0.6505
vn 0.4985 -0.8615 0.0961
vn -0.6074 -0.7899 -0.0842
vn 0.9351 0.3533 0.0297
vn 0.9180 -0.2010 0.3419
vn 0.5844 0.4237 -0.6921
vn -0.3090 -0.0017 -0.9511
vn -0.8991 -0.2158 0.3808
vn -0.9624 0.1767 -0.2064
vn -0.4448 0.6431 0.6234
vn 0.1469 -0.1360 0.9798
vn 0.5310 0.7646 0.3652
vn -0.0940 0.9614 -0.2585
usemtl Mesh_0
s 1
f 3/1/1 4/2/2 2/3/3
f 3/4/1 5/5/4 4/2/2
f 6/6/5 4/2/2 5/5/4
f 5/7/4 3/8/1 7/9/6
f 3/8/1 8/10/7 7/9/6
f 3/8/1 2/11/3 8/10/7
f 2/11/3 1/12/8 8/10/7
f 9/13/9 1/14/8 10/15/10
f 11/16/11 12/17/12 10/15/10
f 11/16/11 10/15/10 1/14/8
f 2/18/3 11/16/11 1/14/8
f 11/16/11 2/18/3 4/19/2
f 6/20/5 11/16/11 4/19/2
f 6/20/5 5/21/4 11/16/11
f 12/17/12 11/16/11 5/21/4
f 7/22/6 12/23/12 5/24/4
f 10/25/10 12/23/12 13/26/13
f 10/25/10 13/26/13 9/27/9
f 9/27/9 8/28/7 1/29/8
f 13/26/13 8/28/7 9/27/9
f 7/22/6 8/28/7 13/26/13
f 13/26/13 12/23/12 7/22/6
