# Blender v2.79 (sub 0) OBJ File: ''
# www.blender.org
mtllib low.mtl
o Inst3D10_RefRep.96
v 0.072157 0.314251 -0.353552
v 0.030475 0.259543 -0.395913
v 0.041541 0.339010 -0.415147
v -0.018677 0.298966 -0.420258
v -0.032071 0.369563 -0.395000
v -0.053543 0.288260 -0.374674
v -0.061864 0.335056 -0.339253
v 0.066816 0.358065 -0.327640
v 0.030956 0.393660 -0.356452
v 0.026573 0.389534 -0.306468
v -0.026824 0.389100 -0.308513
v 0.062610 0.116539 -0.384328
v 0.027937 0.062636 -0.376810
v 0.006621 0.064135 -0.416581
v 0.036716 0.135586 -0.445107
v -0.026693 0.131221 -0.445111
v -0.043631 0.090754 -0.381027
v -0.050845 0.137093 -0.388114
v 0.054068 0.162124 -0.395126
v -0.012170 0.195352 -0.404329
v -0.010048 0.019566 0.305032
v -0.225144 0.051567 0.308283
v 0.001258 -0.005724 -0.100092
v -0.317764 0.021809 -0.003503
v -0.223454 0.046855 -0.310276
v 0.292795 0.016770 -0.083519
v 0.372427 0.061731 0.122751
v 0.236258 0.056604 0.306058
v 0.004646 0.059278 -0.393584
v -0.003909 0.080519 0.399504
v -0.381452 0.078413 0.118929
v -0.378781 0.076529 -0.128346
v 0.217954 0.050466 -0.318989
v 0.382280 0.076529 -0.120125
v 0.398808 0.234109 0.132786
v 0.243624 0.235708 0.341242
v -0.004121 0.235404 0.418695
v -0.253016 0.241360 0.333248
v -0.401181 0.234535 0.120641
v -0.397144 0.238152 -0.136842
v -0.242948 0.232630 -0.344429
v 0.004974 0.228999 -0.422247
v 0.251519 0.230527 -0.339072
v 0.401824 0.232129 -0.127071
v 0.283089 0.424297 0.096888
v 0.197521 0.381418 0.274611
v -0.003238 0.381912 0.337450
v -0.200302 0.378501 0.272561
v -0.324749 0.365997 0.098526
v -0.320283 0.367968 -0.106677
v -0.196644 0.377223 -0.280405
v 0.004115 0.376728 -0.343244
v 0.203470 0.377223 -0.276082
v 0.292794 0.417493 -0.089155
v 0.110175 0.479118 0.164707
v -0.011364 0.432956 0.215949
v -0.171539 0.400177 -0.191009
v 0.002704 0.436455 -0.214571
v 0.119690 0.481015 -0.161274
v 0.161570 0.473071 0.057838
v -0.136523 0.407147 0.183943
v -0.272340 0.406166 0.053659
v -0.243917 0.404779 -0.128118
v 0.162859 0.472161 -0.061556
v 0.451077 0.359488 -0.035739
v 0.268184 0.380541 -0.049165
v -0.096246 0.467837 -0.306766
v -0.100591 0.503693 -0.263421
v -0.098949 0.561141 -0.315086
v -0.046699 0.481167 -0.320215
v -0.039986 0.518072 -0.279450
v -0.048590 0.463557 -0.248550
v -0.046318 0.577922 -0.302120
v -0.046784 0.645821 -0.445241
v -0.007609 0.634687 -0.302876
v -0.059903 0.711531 -0.305477
v -0.096103 0.703389 -0.528327
v -0.093312 0.568446 -0.304586
v -0.138341 0.673884 -0.305738
v -0.140605 0.598096 -0.305267
v 0.121478 0.744861 -0.275644
v 0.063448 0.741905 -0.313876
v 0.095708 0.807796 -0.258124
v 0.095189 0.772749 -0.196601
v 0.000746 0.743173 -0.258908
v 0.033367 0.797767 -0.281985
v 0.090748 0.688127 -0.259299
v 0.024568 0.804878 -0.214646
v -0.246313 0.673997 -0.316705
v -0.296578 0.643686 -0.279389
v -0.310856 0.710151 -0.261772
v -0.291704 0.681147 -0.200083
v -0.253275 0.736960 -0.284619
v -0.195994 0.709986 -0.260779
v -0.239557 0.613908 -0.262302
v -0.251028 0.747466 -0.217185
v 0.095738 0.448307 0.153923
v 0.124314 0.562585 0.236677
v -0.013211 0.415242 0.189900
v -0.042894 0.511843 0.292421
v -0.121364 0.381616 0.152086
v -0.209180 0.460149 0.234818
v -0.187407 0.360272 0.054927
v -0.311023 0.427244 0.085869
v -0.186117 0.359363 -0.064467
v -0.309527 0.425698 -0.097533
v -0.117987 0.379235 -0.160492
v -0.205260 0.456100 -0.245334
v -0.009037 0.412299 -0.196468
v -0.038051 0.506840 -0.301079
v 0.165159 0.467270 -0.061495
v 0.230077 0.591440 -0.094527
v 0.163869 0.468179 0.057899
v 0.228580 0.592986 0.088875
v 0.103347 0.691784 0.261776
v -0.095288 0.677987 0.322299
v -0.280491 0.623793 0.257178
v -0.392363 0.588749 0.092098
v -0.389814 0.587313 -0.110683
v -0.260262 0.574272 -0.273139
v -0.087745 0.673123 -0.334592
v 0.208263 0.766535 -0.104892
v 0.205932 0.768038 0.098098
v 0.047067 0.809576 0.234924
v -0.276803 0.699299 -0.252307
v -0.146954 0.822758 0.230846
v -0.275174 0.781538 0.184389
v -0.356393 0.755266 0.062792
v -0.318045 0.785150 -0.136518
v 0.084107 0.888004 -0.077273
v 0.076349 0.890730 0.071696
v -0.209201 0.894652 0.030710
v -0.125470 0.920215 -0.048673
v -0.130841 0.823080 -0.245586
v -0.111575 0.884619 0.042667
v -0.289260 1.032016 -0.032658
v -0.168682 0.837559 0.049220
v -0.187636 0.817787 -0.028861
v -0.136015 0.862576 -0.079723
v -0.086450 0.909199 -0.028464
v -0.266955 1.018295 -0.060396
v -0.297196 1.075230 -0.031961
v -0.289300 1.047391 0.002655
v -0.313349 1.004323 -0.029109
v 0.099115 0.445926 -0.158655
v 0.128232 0.558536 -0.243476
v 0.109092 0.687733 -0.270013
v 0.053524 0.806304 -0.245208
v -0.035550 0.884445 -0.163450
v -0.038927 0.886825 0.149128
vt 0.082000 0.063861
vt 0.086221 0.033386
vt 0.107000 0.060820
vt 0.082000 0.045469
vt 0.082000 0.076217
vt 0.056000 0.052241
vt 0.056000 0.076964
vt 0.082000 0.085000
vt 0.107000 0.092599
vt 0.086753 0.106338
vt 0.059226 0.100000
vt 0.069000 0.023000
vt 0.082000 0.063197
vt 0.086496 0.033005
vt 0.094436 0.046056
vt 0.107000 0.078020
vt 0.082000 0.077233
vt 0.056000 0.051778
vt 0.056000 0.075870
vt 0.082000 0.087269
vt 0.094051 0.114520
vt 0.063975 0.105426
vt 0.069000 0.023000
vt 0.038996 0.394005
vt 0.122000 0.505000
vt 0.487000 0.251000
vt 0.275118 0.442000
vt 0.425000 0.505000
vt 0.315313 0.425264
vt 0.226000 0.525000
vt 0.124278 0.517799
vt 0.529000 0.504000
vt 0.020626 0.394880
vt 0.023000 0.547000
vt 0.225000 0.547000
vt 0.326000 0.547000
vt 0.427592 0.515907
vt 0.326000 0.547000
vt 0.225000 0.677000
vt 0.124000 0.677000
vt 0.023000 0.679000
vt 0.125000 0.679000
vt 0.226000 0.703000
vt 0.327000 0.717000
vt 0.427000 0.681000
vt 0.529000 0.679000
vt 0.427000 0.677000
vt 0.326000 0.677000
vt 0.223000 0.852000
vt 0.124000 0.810000
vt 0.023000 0.810000
vt 0.111000 0.804000
vt 0.224000 0.880000
vt 0.330000 0.890000
vt 0.427000 0.810000
vt 0.529000 0.810000
vt 0.427000 0.810000
vt 0.326000 0.847000
vt 0.123000 0.979000
vt 0.023000 0.941000
vt 0.427000 0.981000
vt 0.529000 0.941000
vt 0.425000 0.977000
vt 0.225000 0.985000
vt 0.124000 0.985000
vt 0.225000 0.985000
vt 0.326000 0.985000
vt 0.326000 0.985000
vt 0.082000 0.063163
vt 0.056000 0.067734
vt 0.075000 0.108000
vt 0.056000 0.062671
vt 0.069000 0.118000
vt 0.082000 0.062671
vt 0.056000 0.066485
vt 0.069000 0.023000
vt 0.449000 0.015000
vt 0.442871 0.107536
vt 0.483000 0.015000
vt 0.515957 0.015122
vt 0.426428 0.199853
vt 0.424000 0.015000
vt 0.365000 0.015000
vt 0.399000 0.015000
vt 0.323212 0.015182
vt 0.107000 0.046000
vt 0.082000 0.054482
vt 0.107000 0.084768
vt 0.107000 0.047000
vt 0.082000 0.080504
vt 0.056000 0.080566
vt 0.082000 0.093000
vt 0.069000 0.023000
vt 0.094000 0.023000
vt 0.069000 0.116000
vt 0.094000 0.116000
vt 0.107000 0.054481
vt 0.082000 0.046000
vt 0.082000 0.084767
vt 0.082000 0.047000
vt 0.056000 0.080504
vt 0.107000 0.093000
vt 0.082000 0.080567
vt 0.094000 0.023000
vt 0.069000 0.023000
vt 0.094000 0.116000
vt 0.069000 0.116000
vt 0.650000 0.013000
vt 0.650000 0.140715
vt 0.565000 0.013000
vt 0.565000 0.140712
vt 0.650000 0.013000
vt 0.650000 0.140714
vt 0.734000 0.013000
vt 0.734000 0.140712
vt 0.818000 0.013000
vt 0.818000 0.140712
vt 0.902000 0.013000
vt 0.902000 0.140711
vt 0.986000 0.013000
vt 0.986000 0.140711
vt 0.818000 0.013000
vt 0.818000 0.140713
vt 0.734000 0.013000
vt 0.734000 0.140713
vt 0.650000 0.266000
vt 0.565000 0.307299
vt 0.650000 0.310353
vt 0.734000 0.311353
vt 0.818000 0.311352
vt 0.902000 0.266000
vt 0.986000 0.307300
vt 0.818000 0.307300
vt 0.734000 0.307299
vt 0.650000 0.390291
vt 0.902000 0.385330
vt 0.565000 0.470512
vt 0.651000 0.470000
vt 0.735000 0.470000
vt 0.857701 0.492381
vt 0.818000 0.468031
vt 0.734000 0.472058
vt 0.676671 0.610360
vt 0.876000 0.649000
vt 0.986000 0.471375
vt 0.186419 0.005000
vt 0.243000 0.103000
vt 0.211000 0.005000
vt 0.237000 0.005000
vt 0.262000 0.005000
vt 0.288000 0.005000
vt 0.307000 0.005000
vt 0.325184 0.131588
vt 0.334873 0.158493
vt 0.344000 0.142853
vt 0.288000 0.142853
vt 0.306000 0.162000
vt 0.303893 0.137670
vt 0.294000 0.115000
vt 0.527000 0.328000
vt 0.902000 0.013000
vt 0.902000 0.140713
vt 0.902000 0.266000
vt 0.902000 0.390285
vt 0.902000 0.518000
vt 0.845575 0.631754
vt 0.576000 0.610000
vt 0.650000 0.518000
vn 0.8837 0.1647 -0.4381
vn 0.3493 -0.4772 -0.8064
vn 0.5298 0.2675 -0.8048
vn -0.3606 -0.2642 -0.8945
vn -0.5128 0.6118 -0.6023
vn -0.8089 -0.1796 -0.5598
vn -0.8963 0.3635 -0.2540
vn 0.7838 0.5363 -0.3131
vn 0.3670 0.8890 -0.2737
vn 0.2826 0.9536 0.1035
vn -0.4101 0.9079 -0.0868
vn 0.8459 -0.3011 -0.4403
vn 0.4071 -0.8781 -0.2513
vn 0.0085 -0.8634 -0.5044
vn 0.5135 0.0914 -0.8532
vn -0.5244 0.0276 -0.8510
vn -0.7494 -0.5664 -0.3430
vn -0.9144 0.0839 -0.3961
vn 0.7452 0.4462 -0.4956
vn -0.2076 0.6764 -0.7067
vn -0.0092 -0.9501 0.3118
vn -0.4426 -0.6658 0.6007
vn -0.0074 -0.9979 -0.0636
vn -0.3669 -0.9302 0.0110
vn -0.4345 -0.6732 -0.5984
vn 0.3076 -0.9487 -0.0735
vn 0.7449 -0.6137 0.2618
vn 0.4721 -0.6475 0.5982
vn 0.0054 -0.6286 -0.7777
vn -0.0144 -0.4778 0.8784
vn -0.8148 -0.5100 0.2757
vn -0.8108 -0.5048 -0.2962
vn 0.4156 -0.6582 -0.6277
vn 0.8298 -0.4948 -0.2581
vn 0.9308 0.1873 0.3141
vn 0.5764 0.1670 0.7999
vn -0.0183 0.1723 0.9849
vn -0.5933 0.1700 0.7868
vn -0.9390 0.1942 0.2837
vn -0.9232 0.2017 -0.3272
vn -0.5792 0.1464 -0.8019
vn 0.0110 0.1501 -0.9886
vn 0.5895 0.1463 -0.7944
vn 0.9392 0.1893 -0.2864
vn 0.6349 0.7433 0.2110
vn 0.4397 0.6492 0.6206
vn -0.0059 0.7153 0.6988
vn -0.4130 0.7430 0.5266
vn -0.7051 0.6750 0.2172
vn -0.6792 0.6981 -0.2265
vn -0.4195 0.7305 -0.5389
vn 0.0075 0.6966 -0.7174
vn 0.4377 0.6476 -0.6238
vn 0.6580 0.7297 -0.1857
vn 0.2205 0.8505 0.4775
vn -0.0451 0.9039 0.4254
vn -0.2804 0.9371 -0.2080
vn -0.0199 0.8872 -0.4609
vn 0.2591 0.8478 -0.4628
vn 0.3576 0.9324 0.0517
vn -0.2101 0.9644 0.1605
vn -0.4969 0.8634 0.0878
vn -0.4872 0.7508 -0.4461
vn 0.3767 0.9253 -0.0444
vn -0.6015 -0.6889 -0.4045
vn -0.9182 -0.3455 0.1937
vn -0.3489 0.2165 -0.9118
vn 0.5763 -0.3472 -0.7398
vn 0.9217 0.1997 -0.3326
vn 0.3149 -0.9393 0.1361
vn 0.4854 -0.7893 -0.3760
vn 0.7175 -0.3724 -0.5886
vn 0.9628 -0.0362 -0.2678
vn 0.3312 0.9379 -0.1030
vn -0.1017 0.3048 -0.9470
vn -0.1452 -0.8710 -0.4694
vn -0.8689 0.4846 -0.1006
vn -0.7718 -0.5017 -0.3908
vn 0.9369 -0.0635 -0.3438
vn -0.0523 -0.1695 -0.9841
vn 0.5377 0.8235 -0.1808
vn 0.7627 0.4639 0.4506
vn -0.8163 -0.0575 -0.5747
vn -0.4300 0.6750 -0.5996
vn 0.4856 -0.7782 -0.3983
vn -0.3163 0.9454 0.0780
vn 0.1537 -0.1063 -0.9824
vn -0.7342 -0.5768 -0.3580
vn -0.9044 0.3805 -0.1930
vn -0.8985 -0.0464 0.4365
vn -0.0138 0.8028 -0.5961
vn 0.7166 0.4134 -0.5617
vn 0.0412 -0.9147 -0.4020
vn -0.2702 0.9596 0.0784
vn 0.5952 -0.5632 0.5731
vn 0.6348 -0.2901 0.7161
vn 0.2033 -0.6822 0.7024
vn 0.1193 -0.4287 0.8955
vn -0.1857 -0.8031 0.5662
vn -0.3770 -0.5762 0.7252
vn -0.4231 -0.8798 0.2166
vn -0.6845 -0.6745 0.2766
vn -0.4183 -0.8830 -0.2128
vn -0.6802 -0.6791 -0.2761
vn -0.1731 -0.8115 -0.5581
vn -0.3592 -0.6103 -0.7061
vn 0.2189 -0.6926 -0.6873
vn 0.1474 -0.4395 -0.8860
vn 0.8452 -0.4949 -0.2016
vn 0.9475 -0.1870 -0.2593
vn 0.8404 -0.4917 0.2279
vn 0.9419 -0.1776 0.2851
vn 0.5663 0.1585 0.8088
vn -0.0696 0.1515 0.9860
vn -0.6133 -0.0068 0.7898
vn -0.9493 -0.1130 0.2933
vn -0.9462 -0.1108 -0.3041
vn -0.5537 -0.2062 -0.8068
vn -0.0281 0.1364 -0.9903
vn 0.8600 0.4238 -0.2842
vn 0.8533 0.4256 0.3014
vn 0.3406 0.6146 0.7115
vn -0.6080 0.2930 -0.7379
vn -0.2449 0.6805 0.6906
vn -0.6175 0.5517 0.5606
vn -0.8606 0.4776 0.1769
vn -0.7277 0.5908 -0.3485
vn 0.4427 0.8757 -0.1927
vn 0.4127 0.8877 0.2042
vn -0.4351 0.8928 0.1169
vn -0.1688 0.9761 -0.1366
vn -0.2184 0.6907 -0.6893
vn 0.1675 0.6012 0.7813
vn -0.6613 0.7446 -0.0910
vn -0.6108 -0.0459 0.7904
vn -0.8693 -0.4171 -0.2653
vn -0.1332 0.1516 -0.9794
vn 0.5111 0.8374 -0.1934
vn 0.6124 -0.3663 -0.7005
vn -0.1690 0.9704 -0.1727
vn 0.1464 0.1971 0.9694
vn -0.6148 -0.7879 0.0340
vn 0.6078 -0.5716 -0.5512
vn 0.6330 -0.3063 -0.7110
vn 0.5708 0.1422 -0.8087
vn 0.3625 0.6051 -0.7088
vn 0.0653 0.8938 -0.4437
vn 0.0318 0.9110 0.4111
usemtl RefRep.96_Snowman_Texture.png
s 1
f 1/1/1 2/2/2 3/3/3
f 3/3/3 2/2/2 4/4/4
f 3/3/3 4/4/4 5/5/5
f 4/4/4 6/6/6 5/5/5
f 6/6/6 7/7/7 5/5/5
f 8/8/8 1/1/1 9/9/9
f 1/1/1 3/3/3 9/9/9
f 9/9/9 3/3/3 5/5/5
f 10/10/10 8/8/8 9/9/9
f 9/9/9 5/5/5 11/11/11
f 5/5/5 7/7/7 11/11/11
f 6/6/6 4/4/4 2/12/2
f 9/9/9 11/11/11 10/10/10
f 12/13/12 13/14/13 14/15/14
f 12/13/12 14/15/14 15/16/15
f 15/16/15 14/15/14 16/17/16
f 14/15/14 17/18/17 16/17/16
f 17/18/17 18/19/18 16/17/16
f 19/20/19 12/13/12 15/16/15
f 15/16/15 20/21/20 19/20/19
f 15/16/15 16/17/16 20/21/20
f 16/17/16 18/19/18 20/22/20
f 17/18/17 14/15/14 13/23/13
f 21/24/21 22/25/22 23/26/23
f 22/25/22 24/27/24 23/26/23
f 24/27/24 25/28/25 23/26/23
f 26/29/26 27/30/27 28/31/28
f 25/28/25 29/32/29 23/26/23
f 21/33/21 30/34/30 22/25/22
f 22/25/22 31/35/31 24/27/24
f 31/35/31 32/36/32 24/27/24
f 24/27/24 32/36/32 25/28/25
f 33/37/33 34/38/34 26/29/26
f 26/29/26 34/38/34 27/30/27
f 27/30/27 35/39/35 28/31/28
f 35/39/35 36/40/36 28/31/28
f 30/34/30 37/41/37 22/25/22
f 37/41/37 38/42/38 22/25/22
f 22/25/22 38/42/38 31/35/31
f 38/42/38 39/43/39 31/35/31
f 31/35/31 39/43/39 32/36/32
f 39/43/39 40/44/40 32/36/32
f 32/36/32 40/44/40 25/28/25
f 40/44/40 41/45/41 25/28/25
f 25/28/25 41/45/41 29/32/29
f 41/45/41 42/46/42 29/32/29
f 33/37/33 43/47/43 34/38/34
f 43/47/43 44/48/44 34/38/34
f 34/38/34 44/48/44 27/30/27
f 44/48/44 35/39/35 27/30/27
f 35/39/35 45/49/45 36/40/36
f 45/49/45 46/50/46 36/40/36
f 36/40/36 46/50/46 37/41/37
f 46/50/46 47/51/47 37/41/37
f 37/41/37 47/51/47 38/42/38
f 47/51/47 48/52/48 38/42/38
f 39/43/39 38/42/38 49/53/49
f 38/42/38 48/52/48 49/53/49
f 39/43/39 49/53/49 40/44/40
f 49/53/49 50/54/50 40/44/40
f 40/44/40 50/54/50 41/45/41
f 50/54/50 51/55/51 41/45/41
f 41/45/41 51/55/51 42/46/42
f 51/55/51 52/56/52 42/46/42
f 43/47/43 53/57/53 44/48/44
f 53/57/53 54/58/54 44/48/44
f 44/48/44 54/58/54 35/39/35
f 54/58/54 45/49/45 35/39/35
f 45/49/45 55/59/55 46/50/46
f 47/51/47 46/50/46 56/60/56
f 46/50/46 55/59/55 56/60/56
f 47/51/47 56/60/56 48/52/48
f 51/55/51 50/54/50 57/61/57
f 52/56/52 51/55/51 58/62/58
f 51/55/51 57/61/57 58/62/58
f 53/57/53 59/63/59 54/58/54
f 45/49/45 60/64/60 55/59/55
f 48/52/48 56/60/56 61/65/61
f 49/53/49 48/52/48 62/66/62
f 48/52/48 61/65/61 62/66/62
f 49/53/49 62/66/62 50/54/50
f 62/66/62 63/67/63 50/54/50
f 50/54/50 63/67/63 57/61/57
f 54/58/54 59/63/59 64/68/64
f 54/58/54 64/68/64 45/49/45
f 64/68/64 60/64/60 45/49/45
f 67/69/65 68/70/66 69/71/67
f 70/72/68 67/69/65 69/73/67
f 70/74/68 69/71/67 71/75/69
f 67/69/65 72/76/70 68/70/66
f 70/72/68 72/76/70 67/69/65
f 71/75/69 72/76/70 70/74/68
f 73/77/71 74/78/72 75/79/73
f 75/79/73 74/78/72 76/80/74
f 77/81/75 74/78/72 78/82/76
f 79/83/77 77/81/75 80/84/78
f 74/78/72 73/77/71 78/82/76
f 77/81/75 76/80/74 74/78/72
f 79/83/77 76/85/74 77/81/75
f 78/82/76 80/84/78 77/81/75
f 81/86/79 82/87/80 83/88/81
f 81/89/79 83/88/81 84/90/82
f 85/91/83 86/92/84 82/87/80
f 82/87/80 86/92/84 83/88/81
f 82/87/80 87/93/85 85/91/83
f 81/86/79 87/94/85 82/87/80
f 84/90/82 87/94/85 81/89/79
f 85/91/83 88/95/86 86/92/84
f 86/92/84 88/96/86 83/88/81
f 83/88/81 88/96/86 84/90/82
f 89/97/87 90/98/88 91/99/89
f 90/100/88 92/101/90 91/99/89
f 89/97/87 93/102/91 94/103/92
f 89/97/87 91/99/89 93/102/91
f 89/97/87 94/103/92 95/104/93
f 90/98/88 89/97/87 95/104/93
f 92/101/90 90/100/88 95/105/93
f 94/103/92 93/102/91 96/106/94
f 93/102/91 91/99/89 96/106/94
f 91/99/89 92/101/90 96/107/94
f 97/108/95 98/109/96 99/110/97
f 98/109/96 100/111/98 99/110/97
f 99/110/97 100/111/98 101/112/99
f 100/111/98 102/113/100 101/112/99
f 103/114/101 104/115/102 105/116/103
f 104/115/102 106/117/104 105/116/103
f 105/116/103 106/117/104 107/118/105
f 106/117/104 108/119/106 107/118/105
f 107/118/105 108/119/106 109/120/107
f 108/119/106 110/121/108 109/120/107
f 111/122/109 112/123/110 113/124/111
f 112/123/110 114/125/112 113/124/111
f 113/124/111 114/125/112 97/108/95
f 114/125/112 98/109/96 97/108/95
f 98/109/96 115/126/113 100/111/98
f 115/126/113 116/127/114 100/111/98
f 100/111/98 116/127/114 102/113/100
f 116/127/114 117/128/115 102/113/100
f 104/115/102 118/129/116 106/117/104
f 118/129/116 119/130/117 106/117/104
f 106/117/104 119/130/117 108/119/106
f 119/130/117 120/131/118 108/119/106
f 108/119/106 120/131/118 110/121/108
f 120/131/118 121/132/119 110/121/108
f 112/123/110 122/133/120 114/125/112
f 122/133/120 123/134/121 114/125/112
f 114/125/112 123/134/121 98/109/96
f 123/134/121 115/126/113 98/109/96
f 115/126/113 124/135/122 116/127/114
f 119/130/117 125/136/123 120/131/118
f 120/131/118 125/136/123 121/132/119
f 123/134/121 124/135/122 115/126/113
f 116/127/114 126/137/124 117/128/115
f 126/137/124 127/138/125 117/128/115
f 118/129/116 128/139/126 119/130/117
f 128/139/126 129/140/127 119/130/117
f 119/130/117 129/140/127 125/136/123
f 122/133/120 130/141/128 123/134/121
f 130/141/128 131/142/129 123/134/121
f 123/134/121 131/142/129 124/135/122
f 126/137/124 132/143/130 127/138/125
f 132/143/130 133/144/131 129/140/127
f 129/140/127 133/144/131 134/145/132
f 135/146/133 136/147/134 137/148/135
f 137/148/135 136/147/134 138/149/136
f 138/149/136 136/147/134 139/150/137
f 139/150/137 136/147/134 140/151/138
f 140/151/138 136/147/134 135/152/133
f 141/153/139 142/154/140 143/155/141
f 143/156/141 142/157/140 144/158/142
f 144/158/142 142/157/140 141/153/139
f 144/158/142 141/159/139 143/156/141
f 37/41/37 30/34/30 36/40/36
f 36/40/36 30/34/30 28/31/28
f 30/34/30 21/33/21 28/31/28
f 28/31/28 21/33/21 26/29/26
f 21/33/21 23/160/23 26/29/26
f 26/29/26 23/160/23 33/37/33
f 23/160/23 29/32/29 33/37/33
f 29/32/29 42/46/42 33/37/33
f 33/37/33 42/46/42 43/47/43
f 42/46/42 52/56/52 43/47/43
f 43/47/43 52/56/52 53/57/53
f 52/56/52 58/62/58 53/57/53
f 53/57/53 58/62/58 59/63/59
f 101/112/99 102/113/100 103/114/101
f 103/114/101 102/113/100 104/115/102
f 102/113/100 117/128/115 104/115/102
f 104/115/102 117/128/115 118/129/116
f 117/128/115 127/138/125 118/129/116
f 118/129/116 127/138/125 128/139/126
f 127/138/125 132/143/130 128/139/126
f 128/139/126 132/143/130 129/140/127
f 129/140/127 134/145/132 125/136/123
f 125/136/123 134/145/132 121/132/119
f 109/120/107 110/121/108 145/161/143
f 145/161/143 110/121/108 146/162/144
f 110/121/108 121/132/119 146/162/144
f 146/162/144 121/132/119 147/163/145
f 147/163/145 121/132/119 148/164/146
f 121/132/119 134/145/132 148/164/146
f 148/164/146 134/145/132 149/165/147
f 134/145/132 133/166/131 149/165/147
f 133/166/131 132/167/130 150/168/148
f 132/167/130 126/137/124 150/168/148
f 145/161/143 146/162/144 111/122/109
f 111/122/109 146/162/144 112/123/110
f 146/162/144 147/163/145 112/123/110
f 112/123/110 147/163/145 122/133/120
f 147/163/145 148/164/146 122/133/120
f 122/133/120 148/164/146 130/141/128
f 148/164/146 149/165/147 130/141/128
f 149/165/147 133/166/131 130/141/128
f 130/141/128 133/166/131 131/142/129
f 133/166/131 150/168/148 131/142/129
f 131/142/129 150/168/148 124/135/122
f 150/168/148 126/137/124 124/135/122
f 124/135/122 126/137/124 116/127/114
