# Blender v2.79 (sub 0) OBJ File: ''
# www.blender.org
mtllib low.mtl
o Inst3D10_RefRep.96
v 0.066816 0.358065 -0.327640
v 0.054068 0.162124 -0.395126
v -0.010048 0.019566 0.305032
v -0.225144 0.051567 0.308283
v 0.001258 -0.005724 -0.100092
v -0.317764 0.021809 -0.003503
v -0.223454 0.046855 -0.310276
v 0.292795 0.016770 -0.083519
v 0.372427 0.061731 0.122751
v 0.236258 0.056604 0.306058
v 0.004646 0.059278 -0.393584
v -0.003909 0.080519 0.399504
v -0.381452 0.078413 0.118929
v -0.378781 0.076529 -0.128346
v 0.217954 0.050466 -0.318989
v 0.382280 0.076529 -0.120125
v 0.398808 0.234109 0.132786
v 0.243624 0.235708 0.341242
v -0.004121 0.235404 0.418695
v -0.253016 0.241360 0.333248
v -0.401181 0.234535 0.120641
v -0.397144 0.238152 -0.136842
v -0.242948 0.232630 -0.344429
v 0.004974 0.228999 -0.422247
v 0.251519 0.230527 -0.339072
v 0.401824 0.232129 -0.127071
v 0.283089 0.424297 0.096888
v 0.197521 0.381418 0.274611
v -0.003238 0.381912 0.337450
v -0.200302 0.378501 0.272561
v -0.324749 0.365997 0.098526
v -0.320283 0.367968 -0.106677
v -0.196644 0.377223 -0.280405
v 0.004115 0.376728 -0.343244
v 0.203470 0.377223 -0.276082
v 0.292794 0.417493 -0.089155
v 0.110175 0.479118 0.164707
v -0.011364 0.432956 0.215949
v -0.171539 0.400177 -0.191009
v 0.002704 0.436455 -0.214571
v 0.119690 0.481015 -0.161274
v 0.161570 0.473071 0.057838
v -0.136523 0.407147 0.183943
v -0.272340 0.406166 0.053659
v -0.243917 0.404779 -0.128118
v 0.162859 0.472161 -0.061556
v -0.100591 0.503693 -0.263421
v -0.039986 0.518072 -0.279450
v -0.046318 0.577922 -0.302120
v -0.046784 0.645821 -0.445241
v -0.007609 0.634687 -0.302876
v -0.059903 0.711531 -0.305477
v -0.096103 0.703389 -0.528327
v -0.093312 0.568446 -0.304586
v -0.138341 0.673884 -0.305738
v -0.140605 0.598096 -0.305267
v 0.121478 0.744861 -0.275644
v 0.063448 0.741905 -0.313876
v 0.095708 0.807796 -0.258124
v 0.095189 0.772749 -0.196601
v 0.000746 0.743173 -0.258908
v 0.033367 0.797767 -0.281985
v 0.090748 0.688127 -0.259299
v 0.024568 0.804878 -0.214646
v -0.246313 0.673997 -0.316705
v -0.296578 0.643686 -0.279389
v -0.310856 0.710151 -0.261772
v -0.291704 0.681147 -0.200083
v -0.253275 0.736960 -0.284619
v -0.195994 0.709986 -0.260779
v -0.239557 0.613908 -0.262302
v -0.251028 0.747466 -0.217185
v 0.095738 0.448307 0.153923
v 0.124314 0.562585 0.236677
v -0.013211 0.415242 0.189900
v -0.042894 0.511843 0.292421
v -0.121364 0.381616 0.152086
v -0.209180 0.460149 0.234818
v -0.187407 0.360272 0.054927
v -0.311023 0.427244 0.085869
v -0.186117 0.359363 -0.064467
v -0.309527 0.425698 -0.097533
v -0.117987 0.379235 -0.160492
v -0.205260 0.456100 -0.245334
v -0.009037 0.412299 -0.196468
v -0.038051 0.506840 -0.301079
v 0.165159 0.467270 -0.061495
v 0.230077 0.591440 -0.094527
v 0.163869 0.468179 0.057899
v 0.228580 0.592986 0.088875
v 0.103347 0.691784 0.261776
v -0.095288 0.677987 0.322299
v -0.280491 0.623793 0.257178
v -0.392363 0.588749 0.092098
v -0.389814 0.587313 -0.110683
v -0.260262 0.574272 -0.273139
v -0.087745 0.673123 -0.334592
v 0.208263 0.766535 -0.104892
v 0.205932 0.768038 0.098098
v 0.047067 0.809576 0.234924
v -0.276803 0.699299 -0.252307
v -0.146954 0.822758 0.230846
v -0.275174 0.781538 0.184389
v -0.356393 0.755266 0.062792
v -0.318045 0.785150 -0.136518
v 0.084107 0.888004 -0.077273
v 0.076349 0.890730 0.071696
v -0.209201 0.894652 0.030710
v -0.125470 0.920215 -0.048673
v -0.130841 0.823080 -0.245586
v -0.111575 0.884619 0.042667
v -0.168682 0.837559 0.049220
v -0.187636 0.817787 -0.028861
v -0.136015 0.862576 -0.079723
v 0.099115 0.445926 -0.158655
v 0.128232 0.558536 -0.243476
v 0.109092 0.687733 -0.270013
v 0.053524 0.806304 -0.245208
v -0.035550 0.884445 -0.163450
v -0.038927 0.886825 0.149128
vt 0.038996 0.394005
vt 0.122000 0.505000
vt 0.487000 0.251000
vt 0.275118 0.442000
vt 0.425000 0.505000
vt 0.315313 0.425264
vt 0.226000 0.525000
vt 0.124278 0.517799
vt 0.529000 0.504000
vt 0.020626 0.394880
vt 0.023000 0.547000
vt 0.225000 0.547000
vt 0.326000 0.547000
vt 0.427592 0.515907
vt 0.326000 0.547000
vt 0.225000 0.677000
vt 0.124000 0.677000
vt 0.023000 0.679000
vt 0.125000 0.679000
vt 0.226000 0.703000
vt 0.327000 0.717000
vt 0.427000 0.681000
vt 0.529000 0.679000
vt 0.427000 0.677000
vt 0.326000 0.677000
vt 0.223000 0.852000
vt 0.124000 0.810000
vt 0.023000 0.810000
vt 0.111000 0.804000
vt 0.224000 0.880000
vt 0.330000 0.890000
vt 0.427000 0.810000
vt 0.529000 0.810000
vt 0.427000 0.810000
vt 0.326000 0.847000
vt 0.123000 0.979000
vt 0.023000 0.941000
vt 0.427000 0.981000
vt 0.529000 0.941000
vt 0.425000 0.977000
vt 0.225000 0.985000
vt 0.124000 0.985000
vt 0.225000 0.985000
vt 0.326000 0.985000
vt 0.326000 0.985000
vt 0.449000 0.015000
vt 0.442871 0.107536
vt 0.483000 0.015000
vt 0.515957 0.015122
vt 0.426428 0.199853
vt 0.424000 0.015000
vt 0.365000 0.015000
vt 0.399000 0.015000
vt 0.323212 0.015182
vt 0.107000 0.046000
vt 0.082000 0.054482
vt 0.107000 0.084768
vt 0.107000 0.047000
vt 0.082000 0.080504
vt 0.056000 0.080566
vt 0.082000 0.093000
vt 0.069000 0.023000
vt 0.094000 0.023000
vt 0.069000 0.116000
vt 0.094000 0.116000
vt 0.107000 0.054481
vt 0.082000 0.046000
vt 0.082000 0.084767
vt 0.082000 0.047000
vt 0.056000 0.080504
vt 0.107000 0.093000
vt 0.082000 0.080567
vt 0.094000 0.023000
vt 0.069000 0.023000
vt 0.094000 0.116000
vt 0.069000 0.116000
vt 0.650000 0.013000
vt 0.650000 0.140715
vt 0.565000 0.013000
vt 0.565000 0.140712
vt 0.650000 0.013000
vt 0.650000 0.140714
vt 0.734000 0.013000
vt 0.734000 0.140712
vt 0.818000 0.013000
vt 0.818000 0.140712
vt 0.902000 0.013000
vt 0.902000 0.140711
vt 0.986000 0.013000
vt 0.986000 0.140711
vt 0.818000 0.013000
vt 0.818000 0.140713
vt 0.734000 0.013000
vt 0.734000 0.140713
vt 0.650000 0.266000
vt 0.565000 0.307299
vt 0.650000 0.310353
vt 0.734000 0.311353
vt 0.818000 0.311352
vt 0.902000 0.266000
vt 0.986000 0.307300
vt 0.818000 0.307300
vt 0.734000 0.307299
vt 0.650000 0.390291
vt 0.902000 0.385330
vt 0.565000 0.470512
vt 0.651000 0.470000
vt 0.735000 0.470000
vt 0.857701 0.492381
vt 0.818000 0.468031
vt 0.734000 0.472058
vt 0.676671 0.610360
vt 0.876000 0.649000
vt 0.986000 0.471375
vt 0.527000 0.328000
vt 0.902000 0.013000
vt 0.902000 0.140713
vt 0.902000 0.266000
vt 0.902000 0.390285
vt 0.902000 0.518000
vt 0.845575 0.631754
vt 0.576000 0.610000
vt 0.650000 0.518000
vn -0.0092 -0.9501 0.3118
vn -0.4426 -0.6658 0.6007
vn -0.0074 -0.9979 -0.0636
vn -0.3669 -0.9302 0.0110
vn -0.4345 -0.6732 -0.5984
vn 0.3076 -0.9487 -0.0735
vn 0.7449 -0.6137 0.2618
vn 0.4721 -0.6475 0.5982
vn 0.0054 -0.6286 -0.7777
vn -0.0144 -0.4778 0.8784
vn -0.8148 -0.5100 0.2757
vn -0.8108 -0.5048 -0.2962
vn 0.4156 -0.6582 -0.6277
vn 0.8298 -0.4948 -0.2581
vn 0.9308 0.1873 0.3141
vn 0.5764 0.1670 0.7999
vn -0.0183 0.1723 0.9849
vn -0.5933 0.1700 0.7868
vn -0.9390 0.1942 0.2837
vn -0.9232 0.2017 -0.3272
vn -0.5792 0.1464 -0.8019
vn 0.0110 0.1501 -0.9886
vn 0.5895 0.1463 -0.7944
vn 0.9392 0.1893 -0.2864
vn 0.6349 0.7433 0.2110
vn 0.4397 0.6492 0.6206
vn -0.0059 0.7153 0.6988
vn -0.4130 0.7430 0.5266
vn -0.7051 0.6750 0.2172
vn -0.6792 0.6981 -0.2265
vn -0.4195 0.7305 -0.5389
vn 0.0075 0.6966 -0.7174
vn 0.4377 0.6476 -0.6238
vn 0.6580 0.7297 -0.1857
vn 0.2205 0.8505 0.4775
vn -0.0451 0.9039 0.4254
vn -0.2804 0.9371 -0.2080
vn -0.0199 0.8872 -0.4609
vn 0.2591 0.8478 -0.4628
vn 0.3576 0.9324 0.0517
vn -0.2101 0.9644 0.1605
vn -0.4969 0.8634 0.0878
vn -0.4872 0.7508 -0.4461
vn 0.3767 0.9253 -0.0444
vn 0.4854 -0.7893 -0.3760
vn 0.7175 -0.3724 -0.5886
vn 0.9628 -0.0362 -0.2678
vn 0.3312 0.9379 -0.1030
vn -0.1017 0.3048 -0.9470
vn -0.1452 -0.8710 -0.4694
vn -0.8689 0.4846 -0.1006
vn -0.7718 -0.5017 -0.3908
vn 0.9369 -0.0635 -0.3438
vn -0.0523 -0.1695 -0.9841
vn 0.5377 0.8235 -0.1808
vn 0.7627 0.4639 0.4506
vn -0.8163 -0.0575 -0.5747
vn -0.4300 0.6750 -0.5996
vn 0.4856 -0.7782 -0.3983
vn -0.3163 0.9454 0.0780
vn 0.1537 -0.1063 -0.9824
vn -0.7342 -0.5768 -0.3580
vn -0.9044 0.3805 -0.1930
vn -0.8985 -0.0464 0.4365
vn -0.0138 0.8028 -0.5961
vn 0.7166 0.4134 -0.5617
vn 0.0412 -0.9147 -0.4020
vn -0.2702 0.9596 0.0784
vn 0.5952 -0.5632 0.5731
vn 0.6348 -0.2901 0.7161
vn 0.2033 -0.6822 0.7024
vn 0.1193 -0.4287 0.8955
vn -0.1857 -0.8031 0.5662
vn -0.3770 -0.5762 0.7252
vn -0.4231 -0.8798 0.2166
vn -0.6845 -0.6745 0.2766
vn -0.4183 -0.8830 -0.2128
vn -0.6802 -0.6791 -0.2761
vn -0.1731 -0.8115 -0.5581
vn -0.3592 -0.6103 -0.7061
vn 0.2189 -0.6926 -0.6873
vn 0.1474 -0.4395 -0.8860
vn 0.8452 -0.4949 -0.2016
vn 0.9475 -0.1870 -0.2593
vn 0.8404 -0.4917 0.2279
vn 0.9419 -0.1776 0.2851
vn 0.5663 0.1585 0.8088
vn -0.0696 0.1515 0.9860
vn -0.6133 -0.0068 0.7898
vn -0.9493 -0.1130 0.2933
vn -0.9462 -0.1108 -0.3041
vn -0.5537 -0.2062 -0.8068
vn -0.0281 0.1364 -0.9903
vn 0.8600 0.4238 -0.2842
vn 0.8533 0.4256 0.3014
vn 0.3406 0.6146 0.7115
vn -0.6080 0.2930 -0.7379
vn -0.2449 0.6805 0.6906
vn -0.6175 0.5517 0.5606
vn -0.8606 0.4776 0.1769
vn -0.7277 0.5908 -0.3485
vn 0.4427 0.8757 -0.1927
vn 0.4127 0.8877 0.2042
vn -0.4351 0.8928 0.1169
vn -0.1688 0.9761 -0.1366
vn -0.2184 0.6907 -0.6893
vn 0.6078 -0.5716 -0.5512
vn 0.6330 -0.3063 -0.7110
vn 0.5708 0.1422 -0.8087
vn 0.3625 0.6051 -0.7088
vn 0.0653 0.8938 -0.4437
vn 0.0318 0.9110 0.4111
usemtl RefRep.96_Snowman_Texture.png
s 1
f 3/1/1 4/2/2 5/3/3
f 4/2/2 6/4/4 5/3/3
f 6/4/4 7/5/5 5/3/3
f 8/6/6 9/7/7 10/8/8
f 7/5/5 11/9/9 5/3/3
f 3/10/1 12/11/10 4/2/2
f 4/2/2 13/12/11 6/4/4
f 13/12/11 14/13/12 6/4/4
f 6/4/4 14/13/12 7/5/5
f 15/14/13 16/15/14 8/6/6
f 8/6/6 16/15/14 9/7/7
f 9/7/7 17/16/15 10/8/8
f 17/16/15 18/17/16 10/8/8
f 12/11/10 19/18/17 4/2/2
f 19/18/17 20/19/18 4/2/2
f 4/2/2 20/19/18 13/12/11
f 20/19/18 21/20/19 13/12/11
f 13/12/11 21/20/19 14/13/12
f 21/20/19 22/21/20 14/13/12
f 14/13/12 22/21/20 7/5/5
f 22/21/20 23/22/21 7/5/5
f 7/5/5 23/22/21 11/9/9
f 23/22/21 24/23/22 11/9/9
f 15/14/13 25/24/23 16/15/14
f 25/24/23 26/25/24 16/15/14
f 16/15/14 26/25/24 9/7/7
f 26/25/24 17/16/15 9/7/7
f 17/16/15 27/26/25 18/17/16
f 27/26/25 28/27/26 18/17/16
f 18/17/16 28/27/26 19/18/17
f 28/27/26 29/28/27 19/18/17
f 19/18/17 29/28/27 20/19/18
f 29/28/27 30/29/28 20/19/18
f 21/20/19 20/19/18 31/30/29
f 20/19/18 30/29/28 31/30/29
f 21/20/19 31/30/29 22/21/20
f 31/30/29 32/31/30 22/21/20
f 22/21/20 32/31/30 23/22/21
f 32/31/30 33/32/31 23/22/21
f 23/22/21 33/32/31 24/23/22
f 33/32/31 34/33/32 24/23/22
f 25/24/23 35/34/33 26/25/24
f 35/34/33 36/35/34 26/25/24
f 26/25/24 36/35/34 17/16/15
f 36/35/34 27/26/25 17/16/15
f 27/26/25 37/36/35 28/27/26
f 29/28/27 28/27/26 38/37/36
f 28/27/26 37/36/35 38/37/36
f 29/28/27 38/37/36 30/29/28
f 33/32/31 32/31/30 39/38/37
f 34/33/32 33/32/31 40/39/38
f 33/32/31 39/38/37 40/39/38
f 35/34/33 41/40/39 36/35/34
f 27/26/25 42/41/40 37/36/35
f 30/29/28 38/37/36 43/42/41
f 31/30/29 30/29/28 44/43/42
f 30/29/28 43/42/41 44/43/42
f 31/30/29 44/43/42 32/31/30
f 44/43/42 45/44/43 32/31/30
f 32/31/30 45/44/43 39/38/37
f 36/35/34 41/40/39 46/45/44
f 36/35/34 46/45/44 27/26/25
f 46/45/44 42/41/40 27/26/25
f 49/46/45 50/47/46 51/48/47
f 51/48/47 50/47/46 52/49/48
f 53/50/49 50/47/46 54/51/50
f 55/52/51 53/50/49 56/53/52
f 50/47/46 49/46/45 54/51/50
f 53/50/49 52/49/48 50/47/46
f 55/52/51 52/54/48 53/50/49
f 54/51/50 56/53/52 53/50/49
f 57/55/53 58/56/54 59/57/55
f 57/58/53 59/57/55 60/59/56
f 61/60/57 62/61/58 58/56/54
f 58/56/54 62/61/58 59/57/55
f 58/56/54 63/62/59 61/60/57
f 57/55/53 63/63/59 58/56/54
f 60/59/56 63/63/59 57/58/53
f 61/60/57 64/64/60 62/61/58
f 62/61/58 64/65/60 59/57/55
f 59/57/55 64/65/60 60/59/56
f 65/66/61 66/67/62 67/68/63
f 66/69/62 68/70/64 67/68/63
f 65/66/61 69/71/65 70/72/66
f 65/66/61 67/68/63 69/71/65
f 65/66/61 70/72/66 71/73/67
f 66/67/62 65/66/61 71/73/67
f 68/70/64 66/69/62 71/74/67
f 70/72/66 69/71/65 72/75/68
f 69/71/65 67/68/63 72/75/68
f 67/68/63 68/70/64 72/76/68
f 73/77/69 74/78/70 75/79/71
f 74/78/70 76/80/72 75/79/71
f 75/79/71 76/80/72 77/81/73
f 76/80/72 78/82/74 77/81/73
f 79/83/75 80/84/76 81/85/77
f 80/84/76 82/86/78 81/85/77
f 81/85/77 82/86/78 83/87/79
f 82/86/78 84/88/80 83/87/79
f 83/87/79 84/88/80 85/89/81
f 84/88/80 86/90/82 85/89/81
f 87/91/83 88/92/84 89/93/85
f 88/92/84 90/94/86 89/93/85
f 89/93/85 90/94/86 73/77/69
f 90/94/86 74/78/70 73/77/69
f 74/78/70 91/95/87 76/80/72
f 91/95/87 92/96/88 76/80/72
f 76/80/72 92/96/88 78/82/74
f 92/96/88 93/97/89 78/82/74
f 80/84/76 94/98/90 82/86/78
f 94/98/90 95/99/91 82/86/78
f 82/86/78 95/99/91 84/88/80
f 95/99/91 96/100/92 84/88/80
f 84/88/80 96/100/92 86/90/82
f 96/100/92 97/101/93 86/90/82
f 88/92/84 98/102/94 90/94/86
f 98/102/94 99/103/95 90/94/86
f 90/94/86 99/103/95 74/78/70
f 99/103/95 91/95/87 74/78/70
f 91/95/87 100/104/96 92/96/88
f 95/99/91 101/105/97 96/100/92
f 96/100/92 101/105/97 97/101/93
f 99/103/95 100/104/96 91/95/87
f 92/96/88 102/106/98 93/97/89
f 102/106/98 103/107/99 93/97/89
f 94/98/90 104/108/100 95/99/91
f 104/108/100 105/109/101 95/99/91
f 95/99/91 105/109/101 101/105/97
f 98/102/94 106/110/102 99/103/95
f 106/110/102 107/111/103 99/103/95
f 99/103/95 107/111/103 100/104/96
f 102/106/98 108/112/104 103/107/99
f 108/112/104 109/113/105 105/109/101
f 105/109/101 109/113/105 110/114/106
f 19/18/17 12/11/10 18/17/16
f 18/17/16 12/11/10 10/8/8
f 12/11/10 3/10/1 10/8/8
f 10/8/8 3/10/1 8/6/6
f 3/10/1 5/115/3 8/6/6
f 8/6/6 5/115/3 15/14/13
f 5/115/3 11/9/9 15/14/13
f 11/9/9 24/23/22 15/14/13
f 15/14/13 24/23/22 25/24/23
f 24/23/22 34/33/32 25/24/23
f 25/24/23 34/33/32 35/34/33
f 34/33/32 40/39/38 35/34/33
f 35/34/33 40/39/38 41/40/39
f 77/81/73 78/82/74 79/83/75
f 79/83/75 78/82/74 80/84/76
f 78/82/74 93/97/89 80/84/76
f 80/84/76 93/97/89 94/98/90
f 93/97/89 103/107/99 94/98/90
f 94/98/90 103/107/99 104/108/100
f 103/107/99 108/112/104 104/108/100
f 104/108/100 108/112/104 105/109/101
f 105/109/101 110/114/106 101/105/97
f 101/105/97 110/114/106 97/101/93
f 85/89/81 86/90/82 115/116/107
f 115/116/107 86/90/82 116/117/108
f 86/90/82 97/101/93 116/117/108
f 116/117/108 97/101/93 117/118/109
f 117/118/109 97/101/93 118/119/110
f 97/101/93 110/114/106 118/119/110
f 118/119/110 110/114/106 119/120/111
f 110/114/106 109/121/105 119/120/111
f 109/121/105 108/122/104 120/123/112
f 108/122/104 102/106/98 120/123/112
f 115/116/107 116/117/108 87/91/83
f 87/91/83 116/117/108 88/92/84
f 116/117/108 117/118/109 88/92/84
f 88/92/84 117/118/109 98/102/94
f 117/118/109 118/119/110 98/102/94
f 98/102/94 118/119/110 106/110/102
f 118/119/110 119/120/111 106/110/102
f 119/120/111 109/121/105 106/110/102
f 106/110/102 109/121/105 107/111/103
f 109/121/105 120/123/112 107/111/103
f 107/111/103 120/123/112 100/104/96
f 120/123/112 102/106/98 100/104/96
f 100/104/96 102/106/98 92/96/88
l 113 114
l 112 113
l 111 112
