# Blender v2.79 (sub 0) OBJ File: ''
# www.blender.org
mtllib lol.mtl
o Cube_Cube.001
v 0.307504 0.004143 0.288623
v 0.391392 0.400735 0.372510
v -0.300792 0.004143 0.288623
v -0.384680 0.400735 0.372510
v 0.307504 0.004143 -0.319674
v 0.391392 0.400735 -0.403562
v -0.300792 0.004143 -0.319674
v -0.384680 0.400735 -0.403562
v 0.391392 0.747528 0.372510
v -0.384680 0.747528 0.372510
v -0.384680 0.747528 -0.403562
v 0.391392 0.747528 -0.403562
vt 0.727412 0.445954
vt 0.578209 0.500000
vt 0.578209 0.000000
vt 0.727412 0.054046
vt 0.629086 0.945954
vt 0.479883 1.000000
vt 0.479883 0.500000
vt 0.629086 0.554046
vt 0.727412 0.054046
vt 0.876615 0.000000
vt 0.876615 0.500000
vt 0.727412 0.445954
vt 0.901674 0.945954
vt 0.752471 1.000000
vt 0.752471 0.500000
vt 0.901674 0.554046
vt 0.356497 0.891907
vt 0.000000 0.891907
vt 0.000000 0.500000
vt 0.356497 0.500000
vt 1.000000 0.000000
vt 1.000000 0.500000
vt 0.454824 0.500000
vt 0.000000 0.500000
vt 0.000000 0.000000
vt 0.454823 0.000000
vt 0.454824 0.500000
vt 0.454824 0.000000
vt 0.629086 1.000000
vt 0.629086 0.500000
vt 0.356497 1.000000
vt 0.356497 0.500000
vn 0.0000 -0.2069 0.9784
vn -0.9784 -0.2069 0.0000
vn 0.0000 -0.2069 -0.9784
vn 0.9784 -0.2069 -0.0000
vn 0.0000 -1.0000 0.0000
vn -0.0000 0.0000 -1.0000
vn 0.0000 1.0000 -0.0000
vn 0.0000 0.0000 1.0000
vn 1.0000 0.0000 -0.0000
vn -1.0000 0.0000 0.0000
usemtl None
s off
f 1/1/1 2/2/1 4/3/1 3/4/1
f 3/5/2 4/6/2 8/7/2 7/8/2
f 7/9/3 8/10/3 6/11/3 5/12/3
f 5/13/4 6/14/4 2/15/4 1/16/4
f 3/17/5 7/18/5 5/19/5 1/20/5
f 6/11/6 8/10/6 11/21/6 12/22/6
f 11/23/7 10/24/7 9/25/7 12/26/7
f 4/3/8 2/2/8 9/27/8 10/28/8
f 2/15/9 6/14/9 12/29/9 9/30/9
f 8/7/10 4/6/10 10/31/10 11/32/10
