# Blender v2.79 (sub 0) OBJ File: ''
# www.blender.org
mtllib med.mtl
o Object01
v -0.381223 0.094335 0.381067
v -0.381223 -0.000000 0.381067
v 0.000000 0.094335 0.381099
v 0.000000 -0.000000 0.381099
v 0.345423 0.762350 0.000000
v 0.345423 0.762350 0.345267
v 0.381223 0.762350 0.000000
v 0.381223 0.762382 0.381099
v 0.381223 0.762351 -0.381099
v 0.381223 0.678997 -0.381077
v 0.000000 0.762351 -0.381067
v 0.000000 0.678997 -0.381067
v -0.381223 0.762350 0.381067
v -0.381223 0.678997 0.381067
v 0.000000 0.762350 0.381099
v 0.000000 0.678997 0.381099
v -0.345423 0.762350 0.000000
v -0.345423 0.762350 0.345267
v 0.000000 0.762350 0.345267
v 0.000000 0.762350 0.000000
v 0.000000 0.762351 -0.345267
v -0.345423 0.762351 -0.345267
v 0.345423 0.762351 -0.345267
v -0.345423 0.000000 0.000000
v -0.345423 0.000000 -0.345267
v 0.000000 0.000000 -0.345267
v 0.000000 0.000000 0.000000
v 0.345423 0.000000 -0.345267
v 0.345423 0.000000 0.000000
v 0.000000 -0.000000 0.345267
v -0.345423 -0.000000 0.345267
v 0.345423 -0.000000 0.345267
v -0.331493 0.094335 -0.381223
v -0.331493 0.678997 -0.381223
v -0.331493 0.094335 -0.331681
v -0.331493 0.678997 -0.331681
v -0.381067 0.678997 -0.381223
v -0.381067 0.094335 -0.381223
v -0.381067 0.678997 -0.331681
v -0.381067 0.094335 -0.331681
v 0.381223 0.094335 -0.331493
v 0.381223 0.678997 -0.331493
v 0.331681 0.094335 -0.331493
v 0.331681 0.678997 -0.331493
v 0.381223 0.094335 -0.381077
v 0.331681 0.678997 -0.381067
v 0.331681 0.094335 -0.381067
v 0.331493 0.094335 0.381223
v 0.331493 0.678997 0.381223
v 0.331493 0.094335 0.331681
v 0.331493 0.678997 0.331681
v 0.381067 0.678997 0.381223
v 0.381067 0.094335 0.381223
v 0.381067 0.678997 0.331681
v 0.381067 0.094335 0.331681
v -0.381223 0.094335 0.331493
v -0.381223 0.678997 0.331493
v -0.331681 0.094335 0.331493
v -0.331681 0.678997 0.331493
v -0.331681 0.678997 0.381067
v -0.331681 0.094335 0.381067
v -0.345423 0.094335 -0.345267
v 0.000000 0.094335 -0.345267
v -0.381223 0.094335 -0.381067
v 0.000000 0.094335 -0.381067
v 0.000000 0.000000 -0.381067
v -0.381223 0.000000 -0.381067
v 0.345423 0.094335 -0.345267
v 0.345423 0.094335 0.000000
v 0.381223 0.094335 0.000000
v 0.381223 0.000000 0.000000
v 0.381223 0.000000 -0.381099
v 0.345423 0.094335 0.345267
v 0.000000 0.094335 0.345267
v 0.381223 0.094335 0.381099
v 0.381223 -0.000000 0.381099
v -0.345423 0.094335 0.345267
v -0.345423 0.094335 0.000000
v -0.381223 0.094335 0.000000
v -0.381223 0.000000 0.000000
v -0.381223 0.762351 -0.381067
v 0.000000 0.678997 -0.345267
v -0.345423 0.678997 -0.345267
v -0.381223 0.678997 -0.381067
v 0.345423 0.678997 0.000000
v 0.345423 0.678997 -0.345267
v 0.381223 0.678997 0.000000
v 0.000000 0.678997 0.345267
v 0.345423 0.678997 0.345267
v 0.381223 0.678997 0.381099
v 0.000000 0.678997 0.000000
v -0.345423 0.678997 0.000000
v -0.381223 0.762350 0.000000
v -0.345423 0.678997 0.345267
v -0.381223 0.678997 0.000000
v 0.000000 0.094335 0.000000
vt 0.181400 0.989400
vt 0.079100 0.989400
vt 0.181400 0.455000
vt 0.079100 0.455000
vt 0.016600 0.962800
vt 0.016600 0.481900
vt 0.079300 0.989400
vt 0.079300 0.455300
vt 0.181400 0.989400
vt 0.079100 0.989400
vt 0.181400 0.455000
vt 0.079100 0.455000
vt 0.181400 0.989400
vt 0.079100 0.989400
vt 0.181400 0.455000
vt 0.079100 0.455000
vt 0.645300 0.626100
vt 0.970000 0.626100
vt 0.970000 0.326800
vt 0.645300 0.326800
vt 0.970000 0.027300
vt 0.645300 0.027300
vt 0.970000 0.326800
vt 0.970000 0.626100
vt 0.970000 0.027300
vt 0.645300 0.626100
vt 0.970000 0.626100
vt 0.970000 0.326800
vt 0.645300 0.326800
vt 0.970000 0.027300
vt 0.645300 0.027300
vt 0.970000 0.326800
vt 0.970000 0.626100
vt 0.970000 0.027300
vt 0.461200 0.406700
vt 0.461200 0.422000
vt 0.435500 0.406700
vt 0.435500 0.422000
vt 0.434800 0.422000
vt 0.434800 0.406700
vt 0.461900 0.422000
vt 0.461900 0.406700
vt 0.408000 0.406700
vt 0.408000 0.422000
vt 0.409700 0.422000
vt 0.409700 0.406700
vt 0.461200 0.406700
vt 0.461200 0.422000
vt 0.435500 0.406700
vt 0.435500 0.422000
vt 0.434800 0.422000
vt 0.434800 0.406700
vt 0.461900 0.422000
vt 0.461900 0.406700
vt 0.408000 0.406700
vt 0.408000 0.422000
vt 0.409700 0.422000
vt 0.409700 0.406700
vt 0.461200 0.406700
vt 0.461200 0.422000
vt 0.435500 0.406700
vt 0.435500 0.422000
vt 0.434800 0.422000
vt 0.434800 0.406700
vt 0.461900 0.422000
vt 0.461900 0.406700
vt 0.408000 0.406700
vt 0.408000 0.422000
vt 0.409700 0.422000
vt 0.409700 0.406700
vt 0.461200 0.406700
vt 0.461200 0.422000
vt 0.435500 0.406700
vt 0.435500 0.422000
vt 0.434800 0.422000
vt 0.434800 0.406700
vt 0.461900 0.422000
vt 0.461900 0.406700
vt 0.408000 0.406700
vt 0.408000 0.422000
vt 0.409700 0.422000
vt 0.409700 0.406700
vt 0.016600 0.962800
vt 0.016600 0.481900
vt 0.079300 0.989400
vt 0.079300 0.455300
vt 0.016400 0.962800
vt 0.016400 0.481900
vt 0.079100 0.989700
vt 0.079100 0.455300
vt 0.016600 0.962800
vt 0.016600 0.481900
vt 0.079300 0.989400
vt 0.079300 0.455300
vt 0.016400 0.962800
vt 0.016400 0.481900
vt 0.079100 0.989700
vt 0.079100 0.455300
vt 0.016600 0.962800
vt 0.016600 0.481900
vt 0.079300 0.989400
vt 0.079300 0.455300
vt 0.016400 0.962800
vt 0.016400 0.482100
vt 0.079100 0.989700
vt 0.079100 0.455300
vt 0.016600 0.962800
vt 0.016600 0.481900
vt 0.079300 0.989400
vt 0.079300 0.455300
vt 0.016400 0.962800
vt 0.016400 0.481900
vt 0.079100 0.989700
vt 0.079100 0.455300
vt 0.016600 0.962800
vt 0.016600 0.481900
vt 0.079300 0.989400
vt 0.079300 0.455300
vt 0.016400 0.962800
vt 0.016400 0.482100
vt 0.079100 0.989700
vt 0.079100 0.455300
vt 0.016600 0.962800
vt 0.016600 0.481900
vt 0.079300 0.989400
vt 0.079300 0.455300
vt 0.016400 0.962800
vt 0.016400 0.482100
vt 0.079100 0.989700
vt 0.079100 0.455300
vt 0.016600 0.962800
vt 0.016600 0.481900
vt 0.079300 0.989400
vt 0.079300 0.455300
vt 0.016400 0.962800
vt 0.016400 0.482100
vt 0.079100 0.989700
vt 0.079100 0.455300
vt 0.016600 0.962800
vt 0.016600 0.481900
vt 0.079300 0.989400
vt 0.079300 0.455300
vt 0.016400 0.962800
vt 0.016400 0.482100
vt 0.079100 0.989700
vt 0.079100 0.455300
vt 0.181400 0.989400
vt 0.079100 0.989400
vt 0.181400 0.455000
vt 0.079100 0.455000
vt 0.181400 0.989400
vt 0.079100 0.989400
vt 0.181400 0.455000
vt 0.079100 0.455000
vt 0.181400 0.989400
vt 0.079100 0.989400
vt 0.181400 0.455000
vt 0.079100 0.455000
vt 0.181400 0.989400
vt 0.079100 0.989400
vt 0.181400 0.455000
vt 0.079100 0.455000
vt 0.181400 0.989400
vt 0.079100 0.989400
vt 0.181400 0.455000
vt 0.079100 0.455000
vt 0.181400 0.989400
vt 0.079100 0.989400
vt 0.181400 0.455000
vt 0.079100 0.455000
vt 0.181400 0.989400
vt 0.079100 0.989400
vt 0.181400 0.455000
vt 0.079100 0.455000
vt 0.016600 0.962800
vt 0.016600 0.481900
vt 0.079300 0.989400
vt 0.079300 0.455300
vt 0.016400 0.962800
vt 0.016400 0.481900
vt 0.079100 0.989700
vt 0.079100 0.455300
vt 0.016600 0.962800
vt 0.016600 0.481900
vt 0.079300 0.989400
vt 0.079300 0.455300
vt 0.016400 0.962800
vt 0.016400 0.481900
vt 0.079100 0.989700
vt 0.079100 0.455300
vt 0.016600 0.962800
vt 0.016600 0.481900
vt 0.079300 0.989400
vt 0.079300 0.455300
vt 0.016400 0.962800
vt 0.016400 0.482100
vt 0.079100 0.989700
vt 0.079100 0.455300
vt 0.016600 0.962800
vt 0.016600 0.481900
vt 0.079300 0.989400
vt 0.079300 0.455300
vt 0.016400 0.962800
vt 0.016400 0.481900
vt 0.079100 0.989700
vt 0.079100 0.455300
vt 0.117900 0.887600
vt 0.137000 0.887600
vt 0.117900 0.720400
vt 0.137000 0.720400
vt 0.117900 0.553200
vt 0.137000 0.553200
vt 0.156300 0.720400
vt 0.156300 0.887600
vt 0.016600 0.962800
vt 0.016600 0.481900
vt 0.079300 0.989400
vt 0.079300 0.455300
vt 0.016400 0.962800
vt 0.016400 0.482100
vt 0.079100 0.989700
vt 0.079100 0.455300
vt 0.016600 0.962800
vt 0.016600 0.481900
vt 0.079300 0.989400
vt 0.079300 0.455300
vt 0.016400 0.962800
vt 0.016400 0.482100
vt 0.079100 0.989700
vt 0.079100 0.455300
vt 0.016400 0.962800
vt 0.016400 0.482100
vt 0.079100 0.989700
vt 0.079100 0.455300
vt 0.016600 0.962800
vt 0.016600 0.481900
vt 0.079300 0.989400
vt 0.079300 0.455300
vt 0.016400 0.962800
vt 0.016400 0.482100
vt 0.079100 0.989700
vt 0.079100 0.455300
vt 0.181400 0.989400
vt 0.079100 0.989400
vt 0.181400 0.455000
vt 0.079100 0.455000
vt 0.181400 0.989400
vt 0.079100 0.989400
vt 0.181400 0.455000
vt 0.079100 0.455000
vt 0.181400 0.989400
vt 0.079100 0.989400
vt 0.181400 0.455000
vt 0.079100 0.455000
vt 0.181400 0.989400
vt 0.079100 0.989400
vt 0.181400 0.455000
vt 0.079100 0.455000
vt 0.181400 0.989400
vt 0.079100 0.989400
vt 0.181400 0.455000
vt 0.079100 0.455000
vt 0.181400 0.989400
vt 0.079100 0.989400
vt 0.181400 0.455000
vt 0.079100 0.455000
vt 0.156300 0.553200
vt 0.558900 0.642800
vt 0.908200 0.642800
vt 0.908200 0.811800
vt 0.558900 0.980700
vt 0.209700 0.980700
vt 0.209700 0.811800
vt 0.558900 0.811800
vt 0.209700 0.642800
vt 0.908200 0.980700
vn -0.0001 -0.0000 1.0000
vn -0.0000 -0.0000 1.0000
vn 0.0000 1.0000 0.0000
vn -0.0001 1.0000 -0.0001
vn -0.0004 1.0000 -0.0000
vn -0.0002 1.0000 -0.0002
vn -0.0001 -0.0003 -1.0000
vn -0.0000 0.0001 -1.0000
vn -0.0000 -0.0000 -1.0000
vn -0.0000 1.0000 -0.0003
vn 0.0000 -1.0000 -0.0000
vn 1.0000 0.0000 0.0000
vn -1.0000 0.0000 0.0000
vn -0.0002 0.0000 -1.0000
vn -0.0000 0.0002 -1.0000
usemtl Material__31
s 1
f 1/1/1 2/2/1 3/3/2
f 3/3/2 2/2/1 4/4/2
f 5/5/3 6/6/4 7/7/5
f 7/7/5 6/6/4 8/8/6
f 9/9/7 10/10/8 11/11/9
f 11/11/9 10/10/8 12/12/9
f 13/13/1 14/14/1 15/15/2
f 15/15/2 14/14/1 16/16/2
f 17/17/3 18/18/3 19/19/10
f 17/17/3 19/19/10 20/20/3
f 20/20/3 19/19/10 6/21/4
f 20/20/3 6/21/4 5/22/3
f 20/20/3 5/22/3 21/23/3
f 20/20/3 21/23/3 17/17/3
f 17/17/3 21/23/3 22/24/3
f 5/22/3 23/25/3 21/23/3
f 24/26/11 25/27/11 26/28/11
f 24/26/11 26/28/11 27/29/11
f 27/29/11 26/28/11 28/30/11
f 27/29/11 28/30/11 29/31/11
f 27/29/11 29/31/11 30/32/11
f 27/29/11 30/32/11 24/26/11
f 24/26/11 30/32/11 31/33/11
f 29/31/11 32/34/11 30/32/11
f 33/35/12 34/36/12 35/37/12
f 35/37/12 34/36/12 36/38/12
f 37/39/13 38/40/13 39/41/13
f 39/41/13 38/40/13 40/42/13
f 33/43/9 38/40/9 34/44/9
f 34/44/9 38/40/9 37/39/9
f 36/38/2 39/45/2 35/37/2
f 35/37/2 39/45/2 40/46/2
f 41/47/2 42/48/2 43/49/2
f 43/49/2 42/48/2 44/50/2
f 10/51/14 45/52/14 46/53/14
f 46/53/14 45/52/14 47/54/14
f 41/55/12 45/52/12 42/56/12
f 42/56/12 45/52/12 10/51/12
f 44/50/13 46/57/13 43/49/13
f 43/49/13 46/57/13 47/58/13
f 48/59/13 49/60/13 50/61/13
f 50/61/13 49/60/13 51/62/13
f 52/63/12 53/64/12 54/65/12
f 54/65/12 53/64/12 55/66/12
f 48/67/2 53/64/2 49/68/2
f 49/68/2 53/64/2 52/63/2
f 51/62/9 54/69/9 50/61/9
f 50/61/9 54/69/9 55/70/9
f 56/71/9 57/72/9 58/73/9
f 58/73/9 57/72/9 59/74/9
f 14/75/2 1/76/2 60/77/2
f 60/77/2 1/76/2 61/78/2
f 56/79/13 1/76/13 57/80/13
f 57/80/13 1/76/13 14/75/13
f 59/74/12 60/81/12 58/73/12
f 58/73/12 60/81/12 61/82/12
f 62/83/3 63/84/3 64/85/3
f 64/85/3 63/84/3 65/86/3
f 26/87/11 25/88/11 66/89/11
f 66/89/11 25/88/11 67/90/11
f 68/91/3 69/92/3 45/93/3
f 45/93/3 69/92/3 70/94/3
f 29/95/11 28/96/11 71/97/11
f 71/97/11 28/96/11 72/98/11
f 63/99/3 68/100/3 65/101/3
f 65/101/3 68/100/3 45/102/3
f 28/103/11 26/104/11 72/105/11
f 72/105/11 26/104/11 66/106/11
f 73/107/3 74/108/3 75/109/3
f 75/109/3 74/108/3 3/110/3
f 30/111/11 32/112/11 4/113/11
f 4/113/11 32/112/11 76/114/11
f 77/115/3 78/116/3 1/117/3
f 1/117/3 78/116/3 79/118/3
f 24/119/11 31/120/11 80/121/11
f 80/121/11 31/120/11 2/122/11
f 74/123/3 77/124/3 3/125/3
f 3/125/3 77/124/3 1/126/3
f 31/127/11 30/128/11 2/129/11
f 2/129/11 30/128/11 4/130/11
f 69/131/3 73/132/3 70/133/3
f 70/133/3 73/132/3 75/134/3
f 32/135/11 29/136/11 76/137/11
f 76/137/11 29/136/11 71/138/11
f 78/139/3 62/140/3 79/141/3
f 79/141/3 62/140/3 64/142/3
f 25/143/11 24/144/11 67/145/11
f 67/145/11 24/144/11 80/146/11
f 65/147/9 66/148/9 64/149/9
f 64/149/9 66/148/9 67/150/9
f 70/151/12 71/152/12 45/153/12
f 45/153/12 71/152/12 72/154/12
f 45/155/15 72/156/15 65/157/9
f 65/157/9 72/156/15 66/158/9
f 3/159/2 4/160/2 75/161/2
f 75/161/2 4/160/2 76/162/2
f 79/163/13 80/164/13 1/165/13
f 1/165/13 80/164/13 2/166/13
f 75/167/12 76/168/12 70/169/12
f 70/169/12 76/168/12 71/170/12
f 64/171/13 67/172/13 79/173/13
f 79/173/13 67/172/13 80/174/13
f 22/175/3 21/176/3 81/177/3
f 81/177/3 21/176/3 11/178/3
f 82/179/11 83/180/11 12/181/11
f 12/181/11 83/180/11 84/182/11
f 23/183/3 5/184/3 9/185/3
f 9/185/3 5/184/3 7/186/5
f 85/187/11 86/188/11 87/189/11
f 87/189/11 86/188/11 10/190/11
f 21/191/3 23/192/3 11/193/3
f 11/193/3 23/192/3 9/194/3
f 86/195/11 82/196/11 10/197/11
f 10/197/11 82/196/11 12/198/11
f 6/199/4 19/200/10 8/201/6
f 8/201/6 19/200/10 15/202/3
f 88/203/11 89/204/11 16/205/11
f 16/205/11 89/204/11 90/206/11
f 86/207/11 85/208/11 82/209/11
f 82/209/11 85/208/11 91/210/11
f 82/209/11 91/210/11 83/211/11
f 83/211/11 91/210/11 92/212/11
f 92/212/11 91/210/11 88/213/11
f 88/213/11 91/210/11 85/208/11
f 88/213/11 85/208/11 89/214/11
f 18/215/3 17/216/3 13/217/3
f 13/217/3 17/216/3 93/218/3
f 92/219/11 94/220/11 95/221/11
f 95/221/11 94/220/11 14/222/11
f 19/223/10 18/224/3 15/225/3
f 15/225/3 18/224/3 13/226/3
f 94/227/11 88/228/11 14/229/11
f 14/229/11 88/228/11 16/230/11
f 89/231/11 85/232/11 90/233/11
f 90/233/11 85/232/11 87/234/11
f 17/235/3 22/236/3 93/237/3
f 93/237/3 22/236/3 81/238/3
f 83/239/11 92/240/11 84/241/11
f 84/241/11 92/240/11 95/242/11
f 11/243/9 12/244/9 81/245/9
f 81/245/9 12/244/9 84/246/9
f 7/247/12 87/248/12 9/249/12
f 9/249/12 87/248/12 10/250/12
f 15/251/2 16/252/2 8/253/2
f 8/253/2 16/252/2 90/254/2
f 93/255/13 95/256/13 13/257/13
f 13/257/13 95/256/13 14/258/13
f 8/259/12 90/260/12 7/261/12
f 7/261/12 90/260/12 87/262/12
f 81/263/13 84/264/13 93/265/13
f 93/265/13 84/264/13 95/266/13
f 94/267/11 92/212/11 88/213/11
f 78/268/3 77/269/3 74/270/3
f 69/271/3 68/272/3 63/273/3
f 69/271/3 63/273/3 96/274/3
f 96/274/3 63/273/3 62/275/3
f 96/274/3 62/275/3 78/268/3
f 96/274/3 78/268/3 74/270/3
f 96/274/3 74/270/3 69/271/3
f 69/271/3 74/270/3 73/276/3
o Object02
v -0.331493 0.095298 -0.336055
v -0.331493 0.678997 -0.336055
v 0.330779 0.095298 -0.336862
v 0.330779 0.678997 -0.336862
v -0.331493 0.095298 0.336179
v 0.331493 0.095266 0.336179
v -0.331493 0.678997 0.336179
v 0.331493 0.678997 0.336179
v -0.335991 0.095298 -0.331554
v -0.335991 0.095298 0.331713
v -0.335991 0.678997 -0.331554
v -0.335991 0.678997 0.331713
v 0.335188 0.678997 -0.332237
v 0.335991 0.678997 0.331681
v 0.335188 0.095298 -0.332237
v 0.335991 0.095266 0.331681
vt 0.999700 0.999300
vt 0.000000 1.000000
vt 0.999700 0.000300
vt -0.000300 0.000300
vt 1.000000 0.000000
vt 1.000000 0.999500
vt 0.000000 0.000000
vt 0.000300 1.000200
vt 1.000200 -0.000500
vt 1.000500 0.999800
vt 0.000500 -0.000200
vt 0.000800 1.000700
vt 0.000500 1.001000
vt 0.000200 -0.000500
vt 1.000000 1.000000
vt 1.000000 -0.000700
vn -0.0012 0.0000 -1.0000
vn 0.0000 -0.0000 1.0000
vn -1.0000 0.0000 0.0000
vn 1.0000 -0.0000 -0.0015
vn 1.0000 0.0000 -0.0012
usemtl Material__33
s 1
f 97/277/16 98/278/16 99/279/16
f 99/279/16 98/278/16 100/280/16
f 101/281/17 102/282/17 103/283/17
f 103/283/17 102/282/17 104/284/17
f 105/285/18 106/286/18 107/287/18
f 107/287/18 106/286/18 108/288/18
f 109/289/19 110/290/19 111/291/19
f 111/291/19 110/290/19 112/292/20
