# Blender v2.79 (sub 0) OBJ File: ''
# www.blender.org
mtllib yoshi.mtl
o Egg
v -0.156294 0.441240 0.098870
v 0.005227 0.460361 0.222135
v -0.155252 0.585095 0.274085
v 0.004884 0.413023 -0.012103
v 0.166455 0.438900 0.098870
v 0.167500 0.583064 -0.294285
v 0.308225 0.637069 -0.175938
v 0.166448 0.437981 -0.117841
v 0.310730 0.982572 -0.178092
v 0.365605 0.809108 -0.009023
v -0.156301 0.440321 -0.117841
v 0.171280 1.104389 -0.295821
v 0.169158 0.811760 -0.360681
v 0.006469 0.631573 -0.380356
v 0.005198 0.456362 -0.236497
v 0.307931 0.596493 0.057985
v 0.006506 0.636800 0.367222
v 0.169140 0.809298 0.342629
v 0.009080 0.991832 0.362303
v -0.153609 0.811637 0.342629
v 0.167498 0.582755 0.274085
v 0.309462 0.807670 0.198160
v -0.151428 1.112573 0.275931
v 0.311552 1.095997 0.052456
v 0.171322 1.110233 0.275931
v 0.172601 1.286672 0.100715
v 0.011032 1.261096 0.222135
v -0.150148 1.289012 0.100715
v -0.150155 1.288086 -0.115996
v 0.011028 1.260485 -0.242643
v -0.151470 1.106729 -0.295821
v 0.011850 1.373911 -0.012096
v 0.009042 0.986605 -0.385274
v -0.153591 0.814100 -0.360681
v 0.172594 1.285746 -0.115996
v -0.155249 0.585404 -0.294285
v -0.295181 0.640826 0.160039
v -0.350056 0.814296 -0.009023
v -0.295479 0.599640 -0.070810
v -0.292676 0.986329 0.157892
v -0.293913 0.815735 -0.216212
v -0.291883 1.095762 -0.070199
vt 0.248000 0.189500
vt 0.465800 0.489300
vt 0.699200 0.153300
vt 0.072300 0.523400
vt 0.257800 0.825200
vt 0.466800 0.483400
vt 0.666000 1.036100
vt 1.123000 0.292000
vt 0.465800 0.476600
vt 0.672900 0.793900
vt 0.921900 0.569300
vt 0.491200 -0.036100
vt 0.807600 0.489300
vt 1.133800 -0.016600
vt 0.289100 0.163100
vt 0.691400 0.152300
vt 0.068400 0.074200
vt 0.730500 -0.177700
vt -0.169900 0.846700
vt -0.117200 0.365200
vt 0.471700 0.518600
vt 0.206100 -0.001000
vt 0.186500 0.967800
vt 0.742200 1.030300
vt 0.072300 0.435500
vt 0.447300 0.878900
vt 0.953100 0.522500
vt -0.054700 0.016600
vt 0.553700 0.076200
vt 0.706100 -0.063500
vt 1.024400 0.611300
vt -0.278300 0.483400
vt 0.152300 0.957000
vt 0.502000 0.478500
vt 0.960900 0.860400
vt 0.436500 1.073200
vt 0.744100 1.214800
vt 0.244100 1.106400
vt 0.848600 0.714800
vt 0.482400 0.299800
vt 0.987300 0.094700
vt 0.188500 0.915000
vt -0.031300 1.358400
vt -0.039100 0.761700
vt 0.977500 0.836900
vt 1.124000 0.278300
vt 0.677700 0.683600
vt 0.537100 0.875000
vt 0.727500 1.071300
vt 0.403300 0.048800
vt 0.531300 0.429700
vt 0.764600 0.204100
vt 0.043900 0.272500
vt 0.136700 0.668000
vt 0.194300 0.114300
vt 0.408200 0.478500
vt 0.755900 0.067400
vt -0.144500 0.541000
vt 0.127900 0.910200
vt 0.274400 0.759800
vt 0.011700 0.351600
vt 0.097700 0.458000
vt 0.305700 0.808600
vt 0.478500 0.525400
vt 0.702100 0.780300
vt 0.417000 0.755900
vt 0.332000 1.100600
vt 0.739300 0.928700
vt 0.871100 0.452100
vt 0.104500 0.470700
vt 0.424800 0.532200
vt 0.598600 0.061500
vt 0.142600 0.206100
vt 0.466800 0.998000
vt 0.418000 0.911100
vt -0.015600 0.768600
vt 1.066400 0.221700
vt 0.896500 0.813500
vt 0.753900 1.376000
vt 0.888700 1.059600
vt 0.582000 0.997100
vt -0.327100 1.202100
vt 0.344700 1.053700
vt -0.095700 0.874000
vt 0.702100 0.110400
vt 0.258800 0.119100
vt 0.199200 1.110400
vt 0.597700 1.104500
vt 0.465800 0.761700
vt 0.689500 0.863300
vt 1.048800 0.442400
vt 0.825200 0.193400
vt 0.431600 0.454100
vt 0.692400 0.770500
vt 0.297900 -0.080100
vt 0.310500 0.878900
vt 0.535200 -0.007800
vt 0.690400 -0.223600
vt 0.085900 0.167000
vt 0.304700 1.171900
vt 0.585000 1.109400
vt 0.279300 0.743200
vt 0.812500 0.602500
vt 0.326200 1.165000
vt 0.275400 0.777300
vt 0.498000 0.823200
vt 0.905300 0.454100
vt -0.161100 0.818400
vt 0.709000 0.788100
vt 0.147500 0.145500
vt -0.019500 0.719700
vn -0.4679 -0.8471 0.2518
vn -0.0060 -0.8281 0.5605
vn -0.5024 -0.4837 0.7167
vn -0.0072 -1.0000 0.0029
vn 0.4615 -0.8476 0.2620
vn 0.4956 -0.4841 -0.7211
vn 0.8565 -0.3328 -0.3944
vn 0.4605 -0.8522 -0.2486
vn 0.8838 0.2140 -0.4161
vn 0.9997 -0.0259 0.0029
vn -0.4779 -0.8392 -0.2596
vn 0.5218 0.4084 -0.7489
vn 0.5063 -0.0214 -0.8621
vn -0.0026 -0.3548 -0.9349
vn -0.0060 -0.8322 -0.5545
vn 0.8742 -0.4477 0.1878
vn -0.0025 -0.3458 0.9383
vn 0.4889 -0.0216 0.8721
vn 0.0017 0.2394 0.9709
vn -0.5066 -0.0092 0.8621
vn 0.5442 -0.4815 0.6871
vn 0.8640 -0.0393 0.5019
vn -0.5118 0.4185 0.7503
vn 0.9152 0.3723 0.1542
vn 0.5313 0.4020 0.7457
vn 0.5753 0.7506 0.3250
vn 0.0052 0.7226 0.6913
vn -0.5802 0.7477 0.3230
vn -0.5744 0.7524 -0.3226
vn 0.0052 0.7202 -0.6937
vn -0.5334 0.4072 -0.7414
vn 0.0072 0.9999 -0.0085
vn 0.0017 0.2312 -0.9729
vn -0.4885 -0.0177 -0.8724
vn 0.5954 0.7358 -0.3225
vn -0.5493 -0.4685 -0.6919
vn -0.8582 -0.3216 0.4000
vn -0.9999 -0.0105 -0.0040
vn -0.8819 -0.4358 -0.1799
vn -0.8826 0.2263 0.4121
vn -0.8656 -0.0226 -0.5001
vn -0.9103 0.3834 -0.1561
usemtl VMtl091
s 1
f 1/1/1 2/2/2 3/3/3
f 4/4/4 5/5/5 2/2/2
f 6/6/6 7/7/7 8/8/8
f 4/4/4 2/2/2 1/1/1
f 9/9/9 10/10/10 7/11/7
f 11/12/11 4/13/4 1/14/1
f 12/15/12 9/9/9 13/16/13
f 9/9/9 7/11/7 13/16/13
f 14/17/14 6/6/6 15/18/15
f 13/19/13 7/7/7 6/6/6
f 8/20/8 16/21/16 5/22/5
f 7/23/7 10/24/10 16/21/16
f 17/25/17 18/26/18 19/27/19
f 7/23/7 16/21/16 8/20/8
f 3/28/3 17/25/17 20/29/20
f 17/25/17 19/27/19 20/29/20
f 5/22/5 16/21/16 21/30/21
f 16/21/16 22/31/22 21/30/21
f 16/21/16 10/24/10 22/31/22
f 20/32/20 19/33/19 23/34/23
f 21/35/21 22/36/22 18/37/18
f 22/38/22 24/39/24 25/40/25
f 25/40/25 24/39/24 26/41/26
f 22/36/22 10/42/10 24/43/24
f 18/44/18 22/38/22 25/40/25
f 23/34/23 27/45/27 28/46/28
f 29/47/29 30/48/30 31/49/31
f 28/50/28 32/51/32 29/52/29
f 27/53/27 26/54/26 32/51/32
f 31/55/31 33/56/33 34/57/34
f 27/53/27 32/51/32 28/50/28
f 30/58/30 33/56/33 31/55/31
f 30/58/30 12/59/12 33/56/33
f 24/60/24 10/10/10 9/9/9
f 24/60/24 9/9/9 35/61/35
f 35/61/35 9/9/9 12/15/12
f 34/62/34 14/63/14 36/64/36
f 14/63/14 15/65/15 36/64/36
f 26/66/26 24/67/24 35/68/35
f 36/64/36 15/65/15 11/69/11
f 4/13/4 11/12/11 15/70/15
f 8/8/8 15/18/15 6/6/6
f 37/71/37 38/72/38 39/73/39
f 4/13/4 15/70/15 8/74/8
f 3/75/3 37/71/37 1/76/1
f 37/71/37 39/73/39 1/76/1
f 40/77/40 38/72/38 37/71/37
f 40/77/40 37/71/37 20/78/20
f 5/79/5 4/80/4 8/81/8
f 20/78/20 37/71/37 3/75/3
f 1/82/1 39/83/39 11/84/11
f 11/69/11 39/85/39 36/64/36
f 39/85/39 41/86/41 36/64/36
f 39/87/39 38/88/38 41/89/41
f 36/64/36 41/86/41 34/62/34
f 13/90/13 33/56/33 12/59/12
f 14/91/14 34/57/34 33/56/33
f 6/6/6 14/17/14 13/19/13
f 14/91/14 33/56/33 13/90/13
f 41/92/41 42/93/42 31/94/31
f 23/34/23 40/95/40 20/32/20
f 31/94/31 42/93/42 29/96/29
f 41/92/41 38/97/38 42/93/42
f 27/98/27 19/99/19 25/40/25
f 26/41/26 27/98/27 25/40/25
f 34/100/34 41/101/41 31/102/31
f 25/40/25 19/99/19 18/44/18
f 30/103/30 29/52/29 32/51/32
f 12/104/12 30/48/30 35/105/35
f 30/103/30 32/51/32 35/106/35
f 35/106/35 32/51/32 26/54/26
f 17/107/17 3/3/3 2/2/2
f 18/26/18 17/25/17 21/108/21
f 17/107/17 2/2/2 21/109/21
f 21/109/21 2/2/2 5/5/5
f 42/93/42 40/110/40 28/111/28
f 42/93/42 38/97/38 40/110/40
f 28/46/28 40/95/40 23/34/23
f 29/96/29 42/93/42 28/111/28
f 27/45/27 23/34/23 19/33/19
