# Blender v2.79 (sub 0) OBJ File: ''
# www.blender.org
mtllib low.mtl
o Strength_Rock
v 0.485250 0.043760 -0.353878
v -0.404537 0.051313 -0.408885
v 0.488494 0.360231 0.503047
v 0.552798 0.825993 -0.454841
v 0.394708 0.056728 0.397113
v 0.420017 0.047188 -0.461212
v 0.465104 1.124829 0.496248
v 0.448111 1.156936 -0.519568
v -0.513535 0.741655 0.521639
v -0.439789 1.163467 0.502908
v -0.455474 1.068089 -0.533335
v -0.204803 0.043463 0.480484
v -0.409697 0.041924 0.383003
v -0.497092 1.150496 0.006005
v -0.542704 0.679093 -0.432105
v -0.463264 0.040641 -0.045213
vt 1.820741 1.000131
vt 1.986573 1.291380
vt 0.980239 1.141886
vt 0.967851 1.000000
vt 2.000000 1.005112
vt 1.000000 1.508993
vt 2.046001 1.495237
vt 0.020576 1.285134
vt 0.043244 1.500098
vt 1.018392 1.500000
vt 2.984437 1.484672
vt 2.973115 1.000368
vt 0.310980 0.999312
vt 0.000000 1.000685
vt 0.957953 2.000000
vt 0.043654 1.744490
vt 3.000000 1.291380
vt 0.000000 2.000000
vt -0.485478 1.000621
vt -1.000000 1.000685
vt -1.000000 1.291380
vt -0.010607 1.291728
vt 0.000000 1.000404
vt -1.000000 1.500000
vt -0.500000 1.500000
vt 0.000000 1.500000
vn 0.9634 -0.1437 -0.2263
vn 0.8680 0.0406 -0.4948
vn 0.6873 -0.1628 0.7078
vn 0.6567 -0.4212 0.6255
vn 0.4532 -0.1285 -0.8821
vn 0.5637 0.5739 0.5940
vn 0.4735 0.6324 -0.6130
vn -0.7124 0.0098 0.7017
vn -0.5005 0.6381 0.5850
vn -0.5189 0.5104 -0.6857
vn -0.6339 -0.2109 -0.7441
vn -0.1470 -0.1744 0.9736
vn -0.8032 -0.2282 0.5502
vn -0.7171 0.6970 -0.0012
vn -0.8757 -0.0603 -0.4790
vn -0.9871 -0.1601 -0.0032
usemtl it0010_rock.png
s 1
f 1/1/1 4/2/2 3/3/3
f 1/1/1 3/3/3 5/4/4
f 1/1/1 6/5/5 4/2/2
f 3/3/3 4/2/2 7/6/6
f 4/2/2 6/5/5 8/7/7
f 7/6/6 9/8/8 3/3/3
f 7/6/6 10/9/9 9/8/8
f 7/10/6 4/2/2 8/7/7
f 6/5/5 11/11/10 8/7/7
f 6/5/5 2/12/11 11/11/10
f 9/8/8 12/13/12 3/3/3
f 9/8/8 13/14/13 12/13/12
f 7/6/6 8/15/7 10/9/9
f 5/4/4 3/3/3 12/13/12
f 10/9/9 8/15/7 14/16/14
f 2/12/11 15/17/15 11/11/10
f 11/18/10 14/16/14 8/15/7
f 16/19/16 13/20/13 9/21/8
f 16/19/16 15/22/15 2/23/11
f 16/19/16 9/21/8 15/22/15
f 9/21/8 10/24/9 15/22/15
f 10/24/9 14/25/14 15/22/15
f 15/22/15 14/25/14 11/26/10
