# Blender v2.79 (sub 0) OBJ File: ''
# www.blender.org
mtllib crystal.mtl
o Mesh_0281
v 0.310667 0.017214 0.167718
v 0.015692 0.000290 0.001313
v 0.320450 0.006089 -0.186414
v 0.009940 0.019437 0.315492
v 0.002275 -0.004459 -0.321799
v -0.275805 -0.004674 -0.190188
v -0.455063 0.772045 -0.321627
v 0.005424 1.210749 0.022852
v -0.024717 0.764633 -0.565448
v 0.462273 0.753561 -0.345400
v -0.003953 0.749463 0.543284
v -0.456426 0.761578 0.303303
v 0.489710 0.744085 0.289520
v -0.273781 0.006357 0.168711
vt 0.600800 0.261900
vt 0.496200 0.012700
vt 0.417800 0.264400
vt 0.715800 0.259500
vt 0.281400 0.259400
vt 0.419900 0.264600
vt 0.341600 0.623200
vt 0.487000 0.985000
vt 0.014700 0.621800
vt 0.341100 0.621700
vt 0.987500 0.626700
vt 0.733300 0.618200
vt 0.732100 0.620200
vt 0.601700 0.260600
vn 0.0390 -0.9987 0.0324
vn 0.0227 -0.9979 0.0612
vn 0.0274 -0.9995 0.0136
vn 0.0076 -0.9999 0.0144
vn -0.3069 0.7659 -0.5650
vn 0.2832 0.7571 -0.5887
vn -0.3133 0.7135 0.6267
vn 0.3311 0.7032 0.6292
vn -0.0032 -0.9995 0.0307
vn 0.0144 -0.9980 0.0611
vn 0.6993 0.7145 -0.0196
vn -0.6939 0.7200 0.0105
vn 0.3853 -0.2613 -0.8850
vn 0.3878 -0.2628 -0.8835
vn 0.3902 -0.2643 -0.8820
vn 0.3920 -0.2653 -0.8809
vn -0.4094 -0.2886 -0.8655
vn -0.4802 -0.2530 -0.8399
vn -0.4576 -0.2621 0.8496
vn -0.4413 -0.2710 0.8555
vn -0.4511 -0.2657 0.8520
vn -0.4315 -0.2762 0.8588
vn 0.4255 -0.2505 0.8696
vn 0.4355 -0.2574 0.8626
vn 0.4309 -0.2543 0.8658
vn 0.4392 -0.2600 0.8599
vn 0.9690 -0.2445 0.0344
vn 0.9748 -0.2233 -0.0005
vn 0.9775 -0.2095 -0.0227
vn 0.9797 -0.1955 -0.0453
vn -0.9748 -0.2229 0.0123
vn -0.9738 -0.2275 0.0048
vn -0.9730 -0.2309 -0.0008
vn -0.9722 -0.2340 -0.0060
usemtl texture_001.png
s 1
f 1/1/1 2/2/1 3/3/1
f 4/4/2 2/2/2 1/1/2
f 3/3/3 2/2/3 5/5/3
f 5/5/4 2/2/4 6/6/4
f 7/7/5 8/8/5 9/9/5
f 9/9/6 8/8/6 10/10/6
f 11/11/7 8/8/7 12/12/7
f 13/13/8 8/8/8 11/11/8
f 6/6/9 2/2/9 14/14/9
f 14/14/10 2/2/10 4/4/10
f 10/10/11 8/8/11 13/13/11
f 12/12/12 8/8/12 7/7/12
f 3/3/13 5/5/14 10/10/15
f 5/5/14 9/9/16 10/10/15
f 5/5/17 6/6/17 9/9/17
f 6/6/18 7/7/18 9/9/18
f 12/12/19 14/14/20 11/11/21
f 14/14/20 4/4/22 11/11/21
f 1/1/23 13/13/24 4/4/25
f 13/13/24 11/11/26 4/4/25
f 1/1/27 3/3/28 13/13/29
f 3/3/28 10/10/30 13/13/29
f 6/6/31 14/14/32 7/7/33
f 14/14/32 12/12/34 7/7/33
