# Blender v2.79 (sub 0) OBJ File: ''
# www.blender.org
mtllib low.mtl
o instance_1_ID45
v -0.279283 0.198193 -0.117381
v -0.279283 -0.012832 -0.117381
v 0.233261 0.198193 -0.117381
v 0.233261 -0.012832 -0.117381
v -0.366335 0.893145 0.274293
v -0.255834 0.883492 0.373552
v 0.165111 0.883492 0.373552
v 0.276148 0.895002 0.274403
v -0.364259 0.883492 -0.187472
v -0.257573 0.895392 -0.328150
v 0.275487 0.892229 -0.188414
v 0.165111 0.883492 -0.325904
v -0.250433 0.024477 -0.139960
v -0.250433 0.024477 0.274692
v 0.201743 0.024477 0.274692
v 0.201743 0.024477 -0.139960
v -0.234817 0.927953 -0.335830
v 0.241403 0.884416 -0.159012
v 0.294553 0.927953 0.263232
v -0.290093 0.884416 0.224846
v 0.151049 0.884416 0.308508
v -0.199739 0.884416 0.308508
v 0.200791 0.024512 -0.143535
v 0.200993 0.884911 -0.217604
v -0.245856 0.884674 -0.224840
v -0.250975 0.024658 -0.139579
v 0.216748 0.884754 0.281503
v 0.200456 0.024677 0.272869
v -0.271151 0.884788 0.268147
v -0.245673 0.024670 0.278640
v 0.257016 0.927953 0.323087
v -0.305705 0.965310 0.323087
vt 0.548351 0.539486
vt 0.274573 0.598418
vt 0.330769 0.539483
vt 0.604577 0.598406
vt 0.274725 0.869241
vt 0.330715 0.950822
vt 0.604478 0.869275
vt 0.548351 0.950613
vt 0.245451 0.541482
vt 0.025067 0.000574
vt 0.251093 0.000501
vt 0.026344 0.541334
vt 0.299618 0.539483
vt 0.510472 0.000068
vt 0.512949 0.539445
vt 0.274725 0.000074
vt 0.565988 0.000052
vt 0.771811 0.539483
vt 0.556027 0.539453
vt 0.796703 0.000074
vt 0.807692 0.000000
vt 1.000000 0.539465
vt 0.796703 0.539465
vt 0.989011 0.000000
vt 0.232394 0.792026
vt 0.011681 0.792026
vt 0.232394 0.553047
vt 0.011681 0.553047
vn -0.0027 0.9938 0.1109
vn -0.0126 0.9994 0.0325
vn 0.0000 0.9953 0.0968
vn 0.0004 0.9994 0.0350
vn -0.1386 0.9901 -0.0213
vn -0.0256 0.9996 -0.0147
vn 0.0130 0.9996 -0.0268
vn 0.0285 0.9959 -0.0862
vn -0.6617 -0.0636 -0.7471
vn 0.7210 -0.0747 -0.6889
vn -0.7288 -0.0810 -0.6799
vn 0.6821 -0.0629 -0.7286
vn 0.7117 -0.0020 0.7025
vn 0.7093 -0.0205 0.7046
vn -0.7370 0.0023 0.6759
vn -0.6929 -0.0227 0.7206
vn 0.0000 -1.0000 -0.0000
usemtl top
s 1
f 7/1/1 5/2/2 6/3/3
f 5/2/2 7/1/1 8/4/4
f 9/5/5 5/2/2 10/6/6
f 8/4/4 10/6/6 5/2/2
f 10/6/6 8/4/4 11/7/7
f 12/8/8 10/6/6 11/7/7
usemtl sides
f 25/9/9 23/10/10 26/11/11
f 23/10/10 25/9/9 24/12/12
f 23/13/10 27/14/13 28/15/14
f 27/14/13 23/13/10 24/16/12
f 29/17/15 26/18/11 30/19/16
f 26/18/11 29/17/15 25/20/9
f 27/21/13 30/22/16 28/23/14
f 30/22/16 27/21/13 29/24/15
usemtl base
s off
f 14/25/17 13/26/17 15/27/17
f 15/27/17 13/26/17 16/28/17
