# 3ds Max Wavefront OBJ Exporter v0.97b - (c)2007 guruware
# File Created: 06.06.2018 15:28:43

mtllib barrel.mtl

#
# object barrel_md2
#

v  0.5510 0.9814 -0.0019
v  0.2722 0.9864 0.4728
v  0.2810 0.8473 0.4767
v  0.5510 0.8424 -0.0019
v  0.2853 0.3557 0.4728
v  0.5554 0.3607 0.0058
v  0.2810 0.1968 0.4650
v  0.5467 0.1968 0.0058
v  0.2897 0.1968 -0.4923
v  0.2853 0.3557 -0.4962
v  0.2940 0.8424 -0.4923
v  0.2810 0.9814 -0.4845
v  -0.2722 0.8424 -0.4884
v  -0.2679 0.9814 -0.4806
v  -0.2810 0.3557 -0.4923
v  -0.2766 0.1968 -0.4923
v  -0.5554 0.1968 0.0019
v  -0.5554 0.3557 0.0097
v  -0.2853 0.1968 0.4962
v  -0.2810 0.3607 0.4923
v  -0.5554 0.8424 -0.0058
v  -0.2810 0.8424 0.4806
v  -0.5423 0.9814 -0.0058
v  -0.2722 0.9864 0.4728
v  -0.4596 1.2396 0.0214
v  -0.2200 1.2496 0.4106
v  0.2287 1.2446 0.4028
v  0.4770 1.2446 -0.0019
v  0.2374 1.2496 -0.4145
v  -0.2418 1.2446 -0.4067
v  -0.3986 1.2496 0.0019
v  -0.2069 1.2496 -0.3561
v  0.2026 1.2545 -0.3483
v  0.1938 1.2297 -0.3327
v  0.3899 1.2297 -0.0058
v  0.4160 1.2446 0.0019
v  0.2069 1.2446 0.3483
v  -0.1895 1.2446 0.3522
v  -0.1851 1.2297 0.3327
v  -0.3768 1.2247 -0.0019
v  -0.4639 -0.0068 -0.0019
v  -0.2330 -0.0018 -0.4145
v  -0.2330 -0.0068 0.4067
v  0.2374 -0.0117 0.3989
v  0.4726 -0.0117 -0.0019
v  0.2505 -0.0018 -0.4145
v  0.2156 -0.0068 -0.3600
v  -0.1982 -0.0117 -0.3561
v  -0.4029 -0.0117 -0.0058
v  0.4203 -0.0117 -0.0019
v  0.2069 0.0131 -0.3405
v  0.3986 0.0131 0.0019
v  0.2156 -0.0117 0.3522
v  -0.1982 -0.0117 0.3561
v  -0.3855 0.0131 -0.0058
v  -0.1938 0.0131 0.3405
v  -0.1895 1.2297 -0.3288
v  0.1982 1.2247 0.3288
v  -0.1851 0.0131 -0.3444
v  0.2026 0.0131 0.3405
# 60 vertices

vn 0.9910 0.1337 0.0056
vn 0.4865 0.1698 0.8571
vn 0.5109 0.0278 0.8592
vn 0.9999 0.0080 0.0087
vn 0.5169 -0.0274 0.8556
vn 0.9995 -0.0232 0.0194
vn 0.5045 -0.2004 0.8399
vn 0.9818 -0.1888 0.0200
vn 0.5125 -0.1954 -0.8362
vn 0.5064 -0.0065 -0.8623
vn 0.5224 0.0481 -0.8514
vn 0.4909 0.1828 -0.8518
vn -0.4990 0.0407 -0.8657
vn -0.4915 0.1664 -0.8548
vn -0.5119 -0.0013 -0.8591
vn -0.4906 -0.2046 -0.8470
vn -0.9801 -0.1985 -0.0038
vn -0.9998 -0.0009 0.0205
vn -0.4793 -0.2008 0.8544
vn -0.4871 0.0163 0.8732
vn -0.9987 0.0506 -0.0092
vn -0.5067 0.0481 0.8608
vn -0.9827 0.1851 -0.0116
vn -0.4949 0.1744 0.8513
vn -0.7254 0.6864 0.0515
vn -0.3169 0.7417 0.5912
vn 0.3398 0.7264 0.5975
vn 0.7048 0.7093 0.0119
vn 0.3492 0.7042 -0.6182
vn -0.3843 0.6948 -0.6080
vn 0.1787 0.9838 -0.0124
vn 0.0605 0.9919 0.1114
vn -0.1333 0.9610 0.2423
vn -0.2730 0.8292 0.4878
vn -0.3514 0.9335 0.0715
vn -0.1727 0.9850 0.0063
vn -0.1234 0.9666 -0.2247
vn 0.1175 0.9641 -0.2383
vn 0.2599 0.9022 -0.3442
vn 0.5049 0.8627 0.0282
vn -0.6665 -0.7455 -0.0051
vn -0.3474 -0.7268 -0.5925
vn -0.3214 -0.7539 0.5731
vn 0.3317 -0.7434 0.5808
vn 0.6753 -0.7375 -0.0014
vn 0.3572 -0.7342 -0.5773
vn -0.1052 -0.9785 0.1774
vn 0.1355 -0.9707 0.1987
vn 0.2725 -0.9621 -0.0041
vn -0.2864 -0.9581 0.0006
vn -0.2537 -0.8852 0.3899
vn -0.5142 -0.8571 -0.0321
vn -0.1795 -0.9435 -0.2784
vn 0.1327 -0.9574 -0.2563
vn 0.5636 -0.8260 0.0083
vn 0.3278 -0.8063 -0.4924
vn 0.1707 0.9335 0.3153
vn -0.2395 0.8900 -0.3881
vn 0.2517 -0.8159 0.5205
vn -0.2528 -0.8151 -0.5213
# 60 vertex normals

vt 0.3398 0.1641 0.0000
vt 0.5000 0.1680 0.0000
vt 0.4961 0.2070 0.0000
vt 0.3359 0.2031 0.0000
vt 0.4922 0.3477 0.0000
vt 0.3320 0.3438 0.0000
vt 0.4922 0.3945 0.0000
vt 0.3359 0.3906 0.0000
vt 0.1719 0.3867 0.0000
vt 0.1641 0.3359 0.0000
vt 0.1719 0.1914 0.0000
vt 0.1797 0.1484 0.0000
vt 0.0000 0.1602 0.0000
vt 0.0195 0.1055 0.0000
vt 0.0000 0.3516 0.0000
vt 0.0156 0.4141 0.0000
vt 0.9961 0.3711 0.0000
vt 0.9844 0.4297 0.0000
vt 0.8164 0.3945 0.0000
vt 0.8242 0.3477 0.0000
vt 0.6563 0.3945 0.0000
vt 0.6602 0.3477 0.0000
vt 0.8281 0.1992 0.0000
vt 0.9883 0.1758 0.0000
vt 0.6641 0.2070 0.0000
vt 0.8203 0.1563 0.0000
vt 0.9727 0.1250 0.0000
vt 0.6602 0.1680 0.0000
vt 0.7852 0.0820 0.0000
vt 0.6445 0.0859 0.0000
vt 0.5039 0.0859 0.0000
vt 0.3516 0.0859 0.0000
vt 0.2070 0.0703 0.0000
vt 0.0820 0.0195 0.0000
vt 0.9180 0.0313 0.0000
vt 0.7852 0.0664 0.0000
vt 0.9023 0.0195 0.0000
vt 0.1016 0.0078 0.0000
vt 0.2188 0.0547 0.0000
vt 0.2227 0.0469 0.0000
vt 0.3555 0.0625 0.0000
vt 0.3555 0.0703 0.0000
vt 0.5000 0.0742 0.0000
vt 0.6445 0.0742 0.0000
vt 0.6445 0.0625 0.0000
vt 0.7813 0.0547 0.0000
vt 0.7969 0.4609 0.0000
vt 0.9336 0.4961 0.0000
vt 0.6484 0.4570 0.0000
vt 0.4922 0.4609 0.0000
vt 0.3398 0.4531 0.0000
vt 0.0547 0.4844 0.0000
vt 0.1914 0.4492 0.0000
vt 0.1953 0.4648 0.0000
vt 0.0742 0.5000 0.0000
vt 0.7930 0.4766 0.0000
vt 0.9141 0.5117 0.0000
vt 0.3398 0.4688 0.0000
vt 0.1992 0.4727 0.0000
vt 0.3398 0.4766 0.0000
vt 0.4883 0.4727 0.0000
vt 0.6445 0.4727 0.0000
vt 0.7891 0.4844 0.0000
vt 0.6445 0.4805 0.0000
vt 0.6992 0.6758 0.0000
vt 0.5859 0.7070 0.0000
vt 0.5039 0.6250 0.0000
vt 0.7266 0.5625 0.0000
vt 0.1133 0.0039 0.0000
vt 0.8906 0.0117 0.0000
vt 0.5313 0.5156 0.0000
vt 0.5000 0.0625 0.0000
vt 0.1445 0.4922 0.0000
vt 0.2617 0.4766 0.0000
vt 0.3359 0.5742 0.0000
vt 0.0977 0.6016 0.0000
vt 0.4922 0.4844 0.0000
vt 0.2891 0.6836 0.0000
vt 0.1680 0.6992 0.0000
vt 0.0820 0.5078 0.0000
vt 0.9063 0.5195 0.0000
# 81 texture coords

o barrel_md2
g barrel_md2
usemtl barrel_skin
s 1
f 1/1/1 2/2/2 3/3/3 
s 2
f 3/3/3 4/4/4 1/1/1 
s 3
f 4/4/4 3/3/3 5/5/5 
s 4
f 5/5/5 6/6/6 4/4/4 
s 5
f 6/6/6 5/5/5 7/7/7 
s 6
f 7/7/7 8/8/8 6/6/6 
s 7
f 8/8/8 9/9/9 10/10/10 
s 8
f 10/10/10 6/6/6 8/8/8 
s 9
f 6/6/6 10/10/10 11/11/11 
s 10
f 11/11/11 4/4/4 6/6/6 
s 11
f 4/4/4 11/11/11 12/12/12 
s 12
f 12/12/12 1/1/1 4/4/4 
s 13
f 13/13/13 14/14/14 12/12/12 
s 14
f 12/12/12 11/11/11 13/13/13 
s 15
f 13/13/13 11/11/11 10/10/10 
s 16
f 10/10/10 15/15/15 13/13/13 
s 17
f 16/16/16 15/15/15 10/10/10 
s 18
f 10/10/10 9/9/9 16/16/16 
s 19
f 15/17/15 16/18/16 17/19/17 
s 20
f 17/19/17 18/20/18 15/17/15 
s 21
f 17/19/17 19/21/19 20/22/20 
s 22
f 20/22/20 18/20/18 17/19/17 
s 23
f 20/22/20 19/21/19 7/7/7 
s 24
f 7/7/7 5/5/5 20/22/20 
s 25
f 15/17/15 18/20/18 21/23/21 
s 26
f 21/23/21 13/24/13 15/17/15 
s 27
f 18/20/18 20/22/20 22/25/22 
s 28
f 22/25/22 21/23/21 18/20/18 
s 29
f 20/22/20 5/5/5 3/3/3 
s 30
f 3/3/3 22/25/22 20/22/20 
s 31
f 13/24/13 21/23/21 23/26/23 
s 32
f 23/26/23 14/27/14 13/24/13 
s 33
f 23/26/23 21/23/21 22/25/22 
s 34
f 22/25/22 24/28/24 23/26/23 
s 35
f 22/25/22 3/3/3 2/2/2 
s 36
f 2/2/2 24/28/24 22/25/22 
s 37
f 25/29/25 23/26/23 24/28/24 
s 38
f 24/28/24 26/30/26 25/29/25 
s 39
f 26/30/26 24/28/24 2/2/2 
s 40
f 2/2/2 27/31/27 26/30/26 
s 41
f 28/32/28 27/31/27 2/2/2 
s 42
f 2/2/2 1/1/1 28/32/28 
s 43
f 28/32/28 1/1/1 12/12/12 
s 44
f 12/12/12 29/33/29 28/32/28 
s 45
f 29/33/29 12/12/12 14/14/14 
s 46
f 14/14/14 30/34/30 29/33/29 
s 47
f 23/26/23 25/29/25 30/35/30 
s 48
f 30/35/30 14/27/14 23/26/23 
s 49
f 30/35/30 25/29/25 31/36/31 
s 50
f 31/36/31 32/37/32 30/35/30 
s 51
f 29/33/29 30/34/30 32/38/32 
s 52
f 32/38/32 33/39/33 29/33/29 
s 53
f 33/39/33 34/40/34 35/41/35 
s 54
f 35/41/35 36/42/36 33/39/33 
s 55
f 28/32/28 29/33/29 33/39/33 
s 56
f 33/39/33 36/42/36 28/32/28 
s 57
f 28/32/28 36/42/36 37/43/37 
s 58
f 37/43/37 27/31/27 28/32/28 
s 59
f 31/36/31 38/44/38 39/45/39 
s 60
f 39/45/39 40/46/40 31/36/31 
s 61
f 27/31/27 37/43/37 38/44/38 
s 62
f 38/44/38 26/30/26 27/31/27 
s 63
f 38/44/38 31/36/31 25/29/25 
s 64
f 25/29/25 26/30/26 38/44/38 
s 65
f 41/47/41 17/19/17 16/18/16 
s 66
f 16/18/16 42/48/42 41/47/41 
s 67
f 17/19/17 41/47/41 43/49/43 
s 68
f 43/49/43 19/21/19 17/19/17 
s 69
f 7/7/7 19/21/19 43/49/43 
s 70
f 43/49/43 44/50/44 7/7/7 
s 71
f 7/7/7 44/50/44 45/51/45 
s 72
f 45/51/45 8/8/8 7/7/7 
s 73
f 42/52/42 16/16/16 9/9/9 
s 74
f 9/9/9 46/53/46 42/52/42 
s 75
f 8/8/8 45/51/45 46/53/46 
s 76
f 46/53/46 9/9/9 8/8/8 
s 77
f 46/53/46 47/54/47 48/55/48 
s 78
f 48/55/48 42/52/42 46/53/46 
s 79
f 49/56/49 41/47/41 42/48/42 
s 80
f 42/48/42 48/57/48 49/56/49 
s 81
f 47/54/47 46/53/46 45/51/45 
s 82
f 45/51/45 50/58/50 47/54/47 
s 83
f 51/59/51 47/54/47 50/58/50 
s 84
f 50/58/50 52/60/52 51/59/51 
s 85
f 53/61/53 50/58/50 45/51/45 
s 86
f 45/51/45 44/50/44 53/61/53 
s 87
f 41/47/41 49/56/49 54/62/54 
s 88
f 54/62/54 43/49/43 41/47/41 
s 89
f 49/56/49 55/63/55 56/64/56 
s 90
f 56/64/56 54/62/54 49/56/49 
s 91
f 54/62/54 53/61/53 44/50/44 
s 92
f 44/50/44 43/49/43 54/62/54 
s 93
f 35/65/35 34/66/34 57/67/57 
s 94
f 57/67/57 58/68/58 35/65/35 
s 95
f 57/69/57 34/40/34 33/39/33 
s 96
f 33/39/33 32/38/32 57/69/57 
s 97
f 57/70/57 32/37/32 31/36/31 
s 98
f 31/36/31 40/46/40 57/70/57 
s 99
f 39/64/39 58/68/58 57/67/57 
s 100
f 57/67/57 40/71/40 39/64/39 
s 101
f 36/42/36 35/41/35 58/72/58 
s 102
f 58/72/58 37/43/37 36/42/36 
s 103
f 58/72/58 39/45/39 38/44/38 
s 104
f 38/44/38 37/43/37 58/72/58 
s 105
f 56/73/56 55/74/55 59/75/59 
s 106
f 59/75/59 60/76/60 56/73/56 
s 107
f 54/62/54 56/64/56 60/77/60 
s 108
f 60/77/60 53/61/53 54/62/54 
s 109
f 59/75/59 51/78/51 52/79/52 
s 110
f 52/79/52 60/76/60 59/75/59 
s 111
f 52/60/52 50/58/50 53/61/53 
s 112
f 53/61/53 60/77/60 52/60/52 
s 113
f 47/54/47 51/59/51 59/80/59 
s 114
f 59/80/59 48/55/48 47/54/47 
s 115
f 55/63/55 49/56/49 48/57/48 
s 116
f 48/57/48 59/81/59 55/63/55 
# 0 polygons - 116 triangles

