# Blender v2.79 (sub 0) OBJ File: ''
# www.blender.org
mtllib 300.mtl
o Mesh_0553.rip_Tex_000_Mesh_0553.rip_Tex_000_Tex_0009_0.dds_ball
v -0.073035 0.001879 0.085483
v -0.122572 0.043161 0.188219
v -0.161234 0.107608 0.276231
v -0.220030 0.528598 0.376489
v -0.227814 0.413961 0.389405
v -0.224625 0.300457 0.371079
v -0.197379 0.192502 0.330777
v -0.271701 0.107243 0.124698
v -0.226470 0.043196 -0.009709
v -0.356841 0.251331 0.170946
v -0.378327 0.472087 0.189864
v -0.312841 0.101605 -0.023899
v -0.412490 0.234705 -0.002046
v -0.301073 0.635451 0.205017
v -0.387051 0.637029 0.007534
v -0.312507 0.728441 0.023894
v -0.175734 0.689525 0.308846
v -0.098220 0.788163 0.199575
v -0.226036 0.786841 0.009817
v -0.057863 0.828460 0.103293
v -0.447020 0.473642 0.000035
v -0.302955 0.688368 -0.141011
v -0.224627 0.529394 -0.371065
v -0.197509 0.638673 -0.331013
v -0.161238 0.722206 -0.276209
v -0.378851 0.474310 -0.188371
v -0.122465 0.786891 -0.187744
v -0.092679 0.827729 -0.064265
v -0.368472 0.303456 -0.177801
v -0.079819 0.004737 -0.083544
v -0.300946 0.195997 -0.205009
v -0.098788 0.042099 -0.200224
v -0.174346 0.138044 -0.306780
v -0.220042 0.301271 -0.376500
v -0.230895 0.422743 -0.385822
v 0.122466 0.786891 0.187744
v 0.092679 0.827729 0.064266
v 0.161239 0.722205 0.276209
v 0.220042 0.301270 0.376500
v 0.230895 0.422743 0.385822
v 0.224627 0.529394 0.371066
v 0.197509 0.638673 0.331013
v 0.226470 0.043196 0.009709
v 0.312841 0.101605 0.023899
v 0.098788 0.042099 0.200224
v 0.174346 0.138043 0.306780
v 0.300946 0.195996 0.205009
v 0.368472 0.303455 0.177801
v 0.378851 0.474310 0.188371
v 0.331302 0.634230 0.154497
v 0.271701 0.722570 0.124655
v 0.226036 0.786841 -0.009816
v 0.312507 0.728441 -0.023895
v 0.387051 0.637029 -0.007534
v 0.447020 0.473642 -0.000035
v 0.412490 0.234705 0.002047
v 0.079819 0.004737 0.083544
v -0.014010 0.474634 -0.425095
v -0.005606 0.688145 -0.337728
v 0.017099 0.249859 -0.397014
v 0.227814 0.413962 -0.389405
v 0.220030 0.528598 -0.376488
v 0.175734 0.689525 -0.308846
v 0.057862 0.828460 -0.103293
v 0.098220 0.788163 -0.199574
v 0.224626 0.300458 -0.371078
v 0.197379 0.192502 -0.330777
v 0.161234 0.107608 -0.276231
v 0.122572 0.043161 -0.188219
v 0.073035 0.001879 -0.085483
v -0.015655 0.107674 -0.301198
v 0.301073 0.635451 -0.205018
v 0.378327 0.472088 -0.189864
v 0.356840 0.251330 -0.170946
v 0.271701 0.107244 -0.124698
v 0.014009 0.474634 0.425095
v -0.017098 0.249859 0.397015
v 0.015655 0.107674 0.301198
v 0.005606 0.688144 0.337729
v 0.000000 0.839022 0.000000
v 0.000000 -0.009223 -0.000000
vt 0.326615 0.927569
vt 0.428486 0.926491
vt 0.366094 0.861574
vt 0.456817 0.873204
vt 0.474940 0.815933
vt 0.364589 0.775600
vt 0.485512 0.756078
vt 0.491447 0.695003
vt 0.366613 0.666600
vt 0.486315 0.633854
vt 0.390233 0.977988
vt 0.300734 0.874004
vt 0.277599 0.792363
vt 0.394233 0.584404
vt 0.285918 0.574190
vt 0.312533 0.518370
vt 0.465832 0.542064
vt 0.432985 0.462746
vt 0.331065 0.463336
vt 0.399151 0.412669
vt 0.268575 0.663658
vt 0.350292 0.410050
vt 0.885072 0.519599
vt 0.886594 0.404827
vt 0.766356 0.486077
vt 0.776846 0.426213
vt 0.794989 0.368944
vt 0.925176 0.314492
vt 0.823438 0.315642
vt 0.866742 0.265634
vt 0.951062 0.368052
vt 0.969490 0.425503
vt 0.983291 0.515628
vt 0.887196 0.602287
vt 0.972184 0.643951
vt 0.939481 0.723721
vt 0.857669 0.657706
vt 0.921031 0.778753
vt 0.818993 0.779375
vt 0.786885 0.702015
vt 0.765601 0.608293
vt 0.760733 0.547150
vt 0.857668 0.828947
vt 0.682304 0.924482
vt 0.700826 0.869474
vt 0.580264 0.924975
vt 0.548257 0.847581
vt 0.619098 0.803358
vt 0.648691 0.747974
vt 0.527088 0.753841
vt 0.646658 0.665284
vt 0.522289 0.692698
vt 0.527976 0.631639
vt 0.649369 0.582024
vt 0.538526 0.571791
vt 0.647454 0.525889
vt 0.556724 0.514544
vt 0.585220 0.461270
vt 0.686958 0.460214
vt 0.628568 0.411303
vt 0.712797 0.513800
vt 0.731171 0.571272
vt 0.744881 0.661418
vt 0.733629 0.789739
vt 0.618875 0.974597
vt 0.662902 0.977750
vt 0.244052 0.756111
vt 0.250735 0.694872
vt 0.144015 0.667457
vt 0.246718 0.633382
vt 0.234985 0.573346
vt 0.136849 0.554635
vt 0.214574 0.516414
vt 0.128363 0.775639
vt 0.024939 0.694755
vt 0.029956 0.633519
vt 0.050531 0.541496
vt 0.191103 0.462186
vt 0.167024 0.409846
vt 0.127418 0.415494
vt 0.091437 0.463740
vt 0.027288 0.756238
vt 0.039015 0.816273
vt 0.059428 0.873202
vt 0.222909 0.850130
vt 0.144885 0.860869
vt 0.182774 0.925940
vt 0.082906 0.927429
vt 0.365810 0.391275
vt 0.415279 0.299207
vt 0.333092 0.271565
vt 0.457597 0.370818
vt 0.481340 0.217530
vt 0.536922 0.338004
vt 0.536370 0.236084
vt 0.587011 0.304190
vt 0.425526 0.190896
vt 0.589647 0.255333
vt 0.138115 0.271029
vt 0.224090 0.269525
vt 0.125686 0.205671
vt 0.207334 0.182536
vt 0.336052 0.173529
vt 0.126484 0.361751
vt 0.073200 0.333424
vt 0.072120 0.231555
vt 0.183751 0.379874
vt 0.243598 0.390450
vt 0.304665 0.396393
vt 0.736838 0.131941
vt 0.628643 0.116368
vt 0.648250 0.232044
vt 0.531037 0.047495
vt 0.543424 0.132944
vt 0.554212 0.210961
vt 0.709499 0.238683
vt 0.770989 0.234617
vt 0.831021 0.222838
vt 0.849653 0.124687
vt 0.476827 0.071002
vt 0.478376 0.170872
vt 0.426136 0.150037
vt 0.429265 0.115354
vt 0.887939 0.202381
vt 0.994466 0.154739
vt 0.988787 0.115139
vt 0.942148 0.178863
vt 0.940509 0.079199
vt 0.862723 0.038358
vt 0.709451 0.012887
vt 0.770688 0.017857
vt 0.587950 0.027046
vt 0.647973 0.015277
vt 0.021702 0.295176
vt 0.070307 0.143339
vt 0.137246 0.104811
vt 0.087667 0.093091
vt 0.105059 0.042857
vt 0.038090 0.081393
vt 0.127229 0.975017
vt 0.161910 0.978168
vt 0.901699 0.832044
vt 0.190086 0.108373
vt 0.266166 0.113181
vt 0.226379 0.076389
vt 0.186605 0.039577
vt 0.262661 0.044385
vn -0.4586 -0.8879 -0.0346
vn -0.2559 -0.8845 0.3901
vn -0.6448 -0.6945 0.3193
vn -0.3548 -0.7096 0.6088
vn -0.4500 -0.5181 0.7274
vn -0.8354 -0.3438 0.4288
vn -0.5239 -0.2561 0.8124
vn -0.5115 -0.0236 0.8589
vn -0.8794 0.1037 0.4646
vn -0.4829 0.2845 0.8282
vn -0.1581 -0.9705 0.1821
vn -0.6971 -0.7126 -0.0795
vn -0.9232 -0.3842 0.0084
vn -0.7378 0.4963 0.4576
vn -0.8790 0.4765 0.0189
vn -0.6700 0.7367 0.0916
vn -0.3930 0.6300 0.6699
vn -0.2252 0.8697 0.4392
vn -0.4694 0.8826 0.0255
vn -0.1277 0.9674 0.2188
vn -0.9944 0.1056 0.0040
vn -0.2103 0.9680 -0.1371
vn -0.8711 0.1430 -0.4698
vn -0.7047 0.6059 -0.3691
vn -0.5101 0.2900 -0.8098
vn -0.4615 0.4861 -0.7421
vn -0.3489 0.7322 -0.5850
vn -0.2620 0.8800 -0.3963
vn -0.8628 -0.2271 -0.4517
vn -0.7283 -0.5068 -0.4613
vn -0.2252 -0.8797 -0.4188
vn -0.3958 -0.6343 -0.6641
vn -0.4914 -0.2600 -0.8312
vn -0.5291 -0.0000 -0.8486
vn -0.1805 -0.9679 -0.1749
vn 0.4586 -0.8879 0.0346
vn 0.6971 -0.7126 0.0795
vn 0.2252 -0.8797 0.4188
vn 0.3958 -0.6343 0.6641
vn 0.7283 -0.5068 0.4613
vn 0.8628 -0.2271 0.4517
vn 0.4914 -0.2600 0.8312
vn 0.8743 0.1275 0.4682
vn 0.5291 -0.0000 0.8486
vn 0.5056 0.2847 0.8144
vn 0.7819 0.4762 0.4025
vn 0.4531 0.4957 0.7409
vn 0.6257 0.7132 0.3161
vn 0.3578 0.7257 0.5876
vn 0.2504 0.8826 0.3978
vn 0.4626 0.8858 -0.0374
vn 0.2103 0.9680 0.1371
vn 0.6798 0.7283 -0.0866
vn 0.8736 0.4863 -0.0172
vn 0.9944 0.1056 -0.0040
vn 0.9232 -0.3842 -0.0084
vn 0.1805 -0.9679 0.1749
vn 0.1581 -0.9705 -0.1821
vn -0.0179 0.1311 -0.9912
vn -0.0094 0.6043 -0.7967
vn 0.0229 -0.3480 -0.9372
vn 0.5115 -0.0236 -0.8589
vn 0.4829 0.2845 -0.8282
vn 0.3930 0.6300 -0.6699
vn 0.1277 0.9674 -0.2188
vn 0.2252 0.8697 -0.4392
vn 0.5239 -0.2561 -0.8124
vn 0.4500 -0.5181 -0.7274
vn 0.3548 -0.7096 -0.6088
vn 0.0007 -0.7073 -0.7069
vn 0.2559 -0.8845 -0.3901
vn 0.7378 0.4963 -0.4576
vn 0.8794 0.1037 -0.4646
vn 0.6448 -0.6945 -0.3193
vn 0.8354 -0.3438 -0.4288
vn 0.0179 0.1311 0.9912
vn -0.0229 -0.3480 0.9372
vn -0.0007 -0.7073 0.7069
vn 0.0094 0.6043 0.7967
vn 0.0000 1.0000 -0.0000
vn 0.0000 -1.0000 -0.0000
usemtl Tex_0009_0.dds_ball1.png
s 1
f 9/1/1 2/2/2 8/3/3
f 2/2/2 3/4/4 8/3/3
f 3/4/4 7/5/5 8/3/3
f 8/3/3 7/5/5 10/6/6
f 7/5/5 6/7/7 10/6/6
f 6/7/7 5/8/8 10/6/6
f 10/6/6 5/8/8 11/9/9
f 5/8/8 4/10/10 11/9/9
f 2/2/2 9/1/1 1/11/11
f 9/1/1 8/3/3 12/12/12
f 8/3/3 10/6/6 12/12/12
f 12/12/12 10/6/6 13/13/13
f 11/9/9 14/14/14 15/15/15
f 14/14/14 16/16/16 15/15/15
f 4/10/10 14/14/14 11/9/9
f 14/14/14 17/17/17 16/16/16
f 17/17/17 18/18/18 16/16/16
f 18/18/18 19/19/19 16/16/16
f 19/19/19 18/18/18 20/20/20
f 14/14/14 4/10/10 17/17/17
f 10/6/6 11/9/9 13/13/13
f 13/13/13 11/9/9 21/21/21
f 11/9/9 15/15/15 21/21/21
f 19/19/19 20/20/20 28/22/22
f 26/23/23 22/24/24 23/25/25
f 23/25/25 22/24/24 24/26/26
f 24/26/26 22/24/24 25/27/27
f 19/28/19 27/29/28 22/24/24
f 22/24/24 27/29/28 25/27/27
f 27/29/28 19/28/19 28/30/22
f 19/28/19 22/24/24 16/31/16
f 16/31/16 22/24/24 15/32/15
f 22/24/24 26/23/23 15/32/15
f 15/32/15 26/23/23 21/33/21
f 26/23/23 29/34/29 21/33/21
f 21/33/21 29/34/29 13/35/13
f 12/36/12 13/35/13 31/37/30
f 13/35/13 29/34/29 31/37/30
f 9/38/1 12/36/12 32/39/31
f 32/39/31 12/36/12 33/40/32
f 12/36/12 31/37/30 33/40/32
f 31/37/30 29/34/29 34/41/33
f 29/34/29 26/23/23 34/41/33
f 34/41/33 26/23/23 35/42/34
f 35/42/34 26/23/23 23/25/25
f 9/38/1 32/39/31 30/43/35
f 31/37/30 34/41/33 33/40/32
f 43/44/36 44/45/37 45/46/38
f 45/46/38 44/45/37 46/47/39
f 44/45/37 47/48/40 46/47/39
f 47/48/40 48/49/41 39/50/42
f 48/49/41 49/51/43 39/50/42
f 39/50/42 49/51/43 40/52/44
f 40/52/44 49/51/43 41/53/45
f 49/51/43 50/54/46 41/53/45
f 41/53/45 50/54/46 42/55/47
f 50/54/46 51/56/48 42/55/47
f 42/55/47 51/56/48 38/57/49
f 38/57/49 51/56/48 36/58/50
f 36/58/50 51/56/48 52/59/51
f 36/58/50 52/59/51 37/60/52
f 52/59/51 51/56/48 53/61/53
f 51/56/48 50/54/46 53/61/53
f 53/61/53 50/54/46 54/62/54
f 50/54/46 49/51/43 54/62/54
f 54/62/54 49/51/43 55/63/55
f 49/51/43 48/49/41 55/63/55
f 55/63/55 48/49/41 56/64/56
f 43/44/36 57/65/57 70/66/58
f 48/49/41 47/48/40 56/64/56
f 47/48/40 44/45/37 56/64/56
f 43/44/36 45/46/38 57/65/57
f 47/48/40 39/50/42 46/47/39
f 34/67/33 35/68/34 58/69/59
f 35/68/34 23/70/25 58/69/59
f 23/70/25 24/71/26 58/69/59
f 58/69/59 24/71/26 59/72/60
f 24/71/26 25/73/27 59/72/60
f 60/74/61 58/69/59 61/75/62
f 61/75/62 58/69/59 62/76/63
f 58/69/59 59/72/60 62/76/63
f 62/76/63 59/72/60 63/77/64
f 59/72/60 25/73/27 27/78/28
f 28/79/22 64/80/65 27/78/28
f 64/80/65 65/81/66 27/78/28
f 27/78/28 65/81/66 59/72/60
f 65/81/66 63/77/64 59/72/60
f 61/75/62 66/82/67 60/74/61
f 66/82/67 67/83/68 60/74/61
f 67/83/68 68/84/69 60/74/61
f 33/85/32 71/86/70 32/87/31
f 32/87/31 71/86/70 69/88/71
f 69/88/71 71/86/70 68/84/69
f 71/86/70 60/74/61 68/84/69
f 71/86/70 33/85/32 60/74/61
f 33/85/32 34/67/33 60/74/61
f 34/67/33 58/69/59 60/74/61
f 62/89/63 72/90/72 73/91/73
f 72/90/72 63/92/64 53/93/53
f 63/92/64 65/94/66 53/93/53
f 53/93/53 65/94/66 52/95/51
f 65/94/66 64/96/65 52/95/51
f 73/91/73 72/90/72 54/97/54
f 72/90/72 53/93/53 54/97/54
f 52/95/51 64/96/65 37/98/52
f 75/99/74 74/100/75 44/101/37
f 44/101/37 74/100/75 56/102/56
f 74/100/75 73/91/73 56/102/56
f 56/102/56 73/91/73 55/103/55
f 73/91/73 54/97/54 55/103/55
f 68/104/69 75/99/74 69/105/71
f 69/105/71 75/99/74 43/106/36
f 68/104/69 67/107/68 75/99/74
f 75/99/74 67/107/68 74/100/75
f 67/107/68 66/108/67 74/100/75
f 66/108/67 61/109/62 74/100/75
f 74/100/75 61/109/62 73/91/73
f 61/109/62 62/89/63 73/91/73
f 62/89/63 63/92/64 72/90/72
f 76/110/76 77/111/77 39/112/42
f 3/113/4 78/114/78 77/111/77
f 78/114/78 46/115/39 77/111/77
f 77/111/77 46/115/39 39/112/42
f 39/112/42 40/116/44 76/110/76
f 40/116/44 41/117/45 76/110/76
f 41/117/45 42/118/47 76/110/76
f 76/110/76 42/118/47 79/119/79
f 2/120/2 45/121/38 78/114/78
f 45/121/38 46/115/39 78/114/78
f 57/122/57 45/121/38 1/123/11
f 45/121/38 2/120/2 1/123/11
f 2/120/2 78/114/78 3/113/4
f 42/118/47 38/124/49 79/119/79
f 37/125/52 20/126/20 36/127/50
f 36/127/50 20/126/20 18/128/18
f 17/129/17 79/119/79 18/128/18
f 18/128/18 79/119/79 36/127/50
f 36/127/50 79/119/79 38/124/49
f 77/111/77 76/110/76 5/130/8
f 5/130/8 76/110/76 4/131/10
f 76/110/76 79/119/79 4/131/10
f 4/131/10 79/119/79 17/129/17
f 3/113/4 77/111/77 7/132/5
f 7/132/5 77/111/77 6/133/7
f 77/111/77 5/130/8 6/133/7
f 69/105/71 43/106/36 70/134/58
f 43/106/36 75/99/74 44/101/37
f 28/135/22 20/136/20 80/137/80
f 20/136/20 37/138/52 80/137/80
f 37/138/52 64/139/65 80/137/80
f 64/139/65 28/135/22 80/137/80
f 69/88/71 70/140/58 32/87/31
f 70/140/58 30/141/35 32/87/31
f 9/38/1 30/43/35 1/142/11
f 70/143/58 57/144/57 81/145/81
f 30/146/35 70/143/58 81/145/81
f 57/144/57 1/147/11 81/145/81
f 1/147/11 30/146/35 81/145/81
