# Blender v2.79 (sub 0) OBJ File: ''
# www.blender.org
mtllib low.mtl
o Mesh_0553.rip_Tex_000_Mesh_0553.rip_Tex_000_Tex_0009_0.dds_ball
v -0.177050 0.132434 0.299461
v -0.209895 0.636247 0.341891
v -0.293489 0.075829 0.000047
v -0.418145 0.237642 0.028890
v -0.444864 0.521801 0.033237
v -0.321282 0.736853 -0.015878
v -0.144246 0.731166 -0.297134
v -0.366644 0.363576 -0.245975
v 0.015598 0.838536 -0.114717
v -0.158294 0.121496 -0.301100
v -0.234259 0.406581 -0.397653
v 0.012295 0.834232 0.140779
v 0.145492 0.702925 0.320394
v 0.234259 0.406580 0.397654
v 0.293489 0.075829 -0.000047
v 0.143734 0.089828 0.278400
v 0.366645 0.363576 0.245974
v 0.321283 0.736852 0.015878
v 0.418144 0.237641 -0.028890
v -0.034681 -0.007579 0.110574
v -0.014010 0.474634 -0.425095
v 0.202604 0.299830 -0.399742
v 0.209895 0.636248 -0.341890
v 0.177050 0.132434 -0.299462
v 0.012591 -0.001686 -0.145026
v 0.444864 0.521801 -0.033237
v 0.014009 0.474634 0.425095
v -0.202605 0.299829 0.399743
vt 0.408120 0.953908
vt 0.463042 0.853532
vt 0.315864 0.890653
vt 0.290885 0.789803
vt 0.488744 0.722818
vt 0.290927 0.632480
vt 0.466103 0.588194
vt 0.320467 0.494807
vt 0.413031 0.433213
vt 0.350292 0.410050
vt 0.879546 0.573382
vt 0.926329 0.360387
vt 0.764352 0.552763
vt 0.799788 0.365827
vt 0.866742 0.265634
vt 0.977439 0.477410
vt 0.972184 0.643951
vt 0.933321 0.742094
vt 0.835213 0.800165
vt 0.786885 0.702015
vt 0.694642 0.887839
vt 0.641072 0.719061
vt 0.564922 0.887876
vt 0.688070 0.506111
vt 0.525900 0.698316
vt 0.549870 0.536105
vt 0.606544 0.436689
vt 0.739067 0.623191
vt 0.733629 0.789739
vt 0.618875 0.974597
vt 0.662902 0.977750
vt 0.246887 0.700396
vt 0.198364 0.520473
vt 0.144015 0.667457
vt 0.048588 0.734421
vt 0.038820 0.593874
vt 0.134081 0.425261
vt 0.137524 0.950504
vt 0.213710 0.851396
vt 0.052416 0.853647
vt 0.411471 0.371076
vt 0.566463 0.318062
vt 0.504901 0.225474
vt 0.367229 0.195889
vt 0.589647 0.255333
vt 0.146155 0.367976
vt 0.109036 0.220801
vt 0.045782 0.313061
vt 0.209893 0.195822
vt 0.276855 0.393687
vt 0.736838 0.131941
vt 0.669803 0.036562
vt 0.703970 0.234837
vt 0.550586 0.040471
vt 0.524163 0.184588
vt 0.863105 0.192872
vt 0.441360 0.116778
vt 0.810338 0.026689
vt 0.968424 0.134268
vt 0.901699 0.832044
vn -0.0689 -0.9716 0.2265
vn -0.3925 -0.6622 0.6383
vn -0.6250 -0.7801 -0.0271
vn -0.9224 -0.3744 0.0951
vn -0.4537 -0.2243 0.8625
vn -0.9693 0.2270 0.0940
vn -0.4853 0.4895 0.7245
vn -0.6867 0.7249 -0.0551
vn -0.0113 0.9543 0.2988
vn 0.0559 0.9667 -0.2496
vn -0.8513 -0.0789 -0.5188
vn -0.5015 0.0095 -0.8651
vn -0.3514 0.6740 -0.6499
vn 0.0279 -0.9545 -0.2970
vn -0.3564 -0.6477 -0.6734
vn 0.6198 -0.7844 0.0231
vn 0.8475 -0.0845 0.5241
vn 0.3302 -0.7030 0.6299
vn 0.6924 0.7191 0.0595
vn 0.5051 -0.0122 0.8630
vn 0.3632 0.6217 0.6940
vn 0.9693 0.2270 -0.0940
vn 0.9224 -0.3744 -0.0951
vn -0.0174 0.1402 -0.9900
vn 0.4573 -0.2217 -0.8612
vn 0.4822 0.4885 -0.7273
vn 0.3957 -0.6617 -0.6368
vn 0.0089 0.1275 0.9918
usemtl Tex_0009_0.dds_ball1.png
s 1
f 20/1/1 1/2/2 3/3/3
f 3/3/3 1/2/2 4/4/4
f 1/2/2 28/5/5 4/4/4
f 4/4/4 28/5/5 5/6/6
f 28/5/5 2/7/7 5/6/6
f 2/7/7 6/8/8 5/6/6
f 2/7/7 12/9/9 6/8/8
f 6/8/8 12/9/9 9/10/10
f 8/11/11 6/12/8 11/13/12
f 11/13/12 6/12/8 7/14/13
f 7/14/13 6/12/8 9/15/10
f 6/12/8 8/11/11 5/16/6
f 5/16/6 8/11/11 4/17/4
f 3/18/3 4/17/4 8/11/11
f 25/19/14 3/18/3 10/20/15
f 3/18/3 8/11/11 10/20/15
f 8/11/11 11/13/12 10/20/15
f 15/21/16 17/22/17 16/23/18
f 17/22/17 18/24/19 14/25/20
f 14/25/20 18/24/19 13/26/21
f 13/26/21 18/24/19 12/27/9
f 18/24/19 17/22/17 26/28/22
f 26/28/22 17/22/17 19/29/23
f 15/21/16 20/30/1 25/31/14
f 17/22/17 15/21/16 19/29/23
f 15/21/16 16/23/18 20/30/1
f 17/22/17 14/25/20 16/23/18
f 11/32/12 7/33/13 21/34/24
f 22/35/25 21/34/24 23/36/26
f 21/34/24 7/33/13 23/36/26
f 9/37/10 23/36/26 7/33/13
f 25/38/14 10/39/15 24/40/27
f 10/39/15 22/35/25 24/40/27
f 10/39/15 11/32/12 22/35/25
f 11/32/12 21/34/24 22/35/25
f 23/41/26 9/42/10 18/43/19
f 23/41/26 18/43/19 26/44/22
f 18/43/19 9/42/10 12/45/9
f 24/46/27 15/47/16 25/48/14
f 15/47/16 24/46/27 19/49/23
f 24/46/27 22/50/25 19/49/23
f 19/49/23 22/50/25 26/44/22
f 22/50/25 23/41/26 26/44/22
f 27/51/28 28/52/5 14/53/20
f 1/54/2 16/55/18 28/52/5
f 28/52/5 16/55/18 14/53/20
f 14/53/20 13/56/21 27/51/28
f 20/57/1 16/55/18 1/54/2
f 2/58/7 13/56/21 12/59/9
f 28/52/5 27/51/28 2/58/7
f 27/51/28 13/56/21 2/58/7
f 3/18/3 25/19/14 20/60/1
